<?xml version="1.0" encoding="UTF-8"?>
<svg width="1558px" height="278px" viewBox="0 0 1558 278" version="1.1" xmlns="http://www.w3.org/2000/svg" xmlns:xlink="http://www.w3.org/1999/xlink">
    <!-- Generator: Sketch 64 (93537) - https://sketch.com -->
    <title>Group 7</title>
    <desc>Created with Sketch.</desc>
    <g id="Page-1" stroke="none" stroke-width="1" fill="none" fill-rule="evenodd">
        <g id="Group-7" fill="#4558A8" fill-rule="nonzero">
            <path d="M267.042301,5.21373223 L267.042301,156.632294 L212.520533,156.632294 L212.520533,183.686636 C244.819465,184.38208 267.042301,203.854513 271.899951,227.473466 L308.015981,227.473466 L308.015981,5.21373223 L267.042301,5.21373223 Z" id="path1484" transform="translate(260.268257, 116.343599) scale(-1, 1) rotate(-180.000000) translate(-260.268257, -116.343599) "></path>
            <path d="M497.916237,36.7905587 L497.916237,1.42108547e-14 L335.077752,1.42108547e-14 C335.747052,38.5422411 349.284681,65.9782931 388.532824,90.3083769 L425.699863,113.566536 C445.836367,126.053155 454.532032,139.622157 454.532032,155.931105 C454.532032,174.342071 442.014039,191.001354 416.653862,191.001354 C391.079299,191.001354 378.205741,173.672771 377.473695,151.408104 L337.211145,151.408104 C337.179771,152.108777 337.148398,152.80945 337.148398,153.510123 C337.148398,192.4027 366.325674,227.47295 417.359764,227.47295 C467.018652,227.47295 496.546265,195.174019 496.546265,156.631778 C496.546265,127.454501 480.205944,103.500898 453.130686,86.8416145 L409.359543,59.7297545 C398.624606,53.1361083 389.578604,47.9072057 386.456949,36.7905587 L497.916237,36.7905587 Z" id="path1488" transform="translate(416.496995, 113.736475) scale(-1, 1) rotate(-180.000000) translate(-416.496995, -113.736475) "></path>
            <path d="M525.084352,71.4482359 L525.084352,222.626268 L563.631822,222.626268 L563.631822,201.093647 C573.352352,218.458833 594.534637,227.483919 613.635818,227.483919 C635.858654,227.483919 655.304943,217.418281 664.335258,197.621656 C677.533008,219.844492 697.324404,227.483919 719.207362,227.483919 C749.765069,227.483919 778.931887,208.042859 778.931887,163.241621 L778.931887,71.4482359 L740.03931,71.4482359 L740.03931,156.642746 C740.03931,176.439371 729.968443,191.373117 707.395271,191.373117 C686.212986,191.373117 672.325021,174.703376 672.325021,153.866199 L672.325021,71.4482359 L632.736999,71.4482359 L632.736999,156.642746 C632.736999,176.094264 623.01124,191.373117 600.09296,191.373117 C578.560339,191.373117 565.017482,175.393591 565.017482,153.866199 L565.017482,71.4482359 L525.084352,71.4482359 Z" id="path1492" transform="translate(652.008120, 149.466077) scale(-1, 1) rotate(-180.000000) translate(-652.008120, -149.466077) "></path>
            <path d="M825.896881,52.7674786 C840.109038,52.7674786 851.612624,41.2638928 851.612624,27.0569645 C851.612624,12.8448072 840.109038,1.6758712 825.896881,1.6758712 C812.024602,1.6758712 800.521017,12.8448072 800.521017,27.0569645 C800.521017,41.2638928 812.024602,52.7674786 825.896881,52.7674786" id="path1496" transform="translate(826.066820, 27.221675) scale(-1, 1) rotate(-180.000000) translate(-826.066820, -27.221675) "></path>
            <polygon id="path1500" transform="translate(826.066779, 151.877146) scale(-1, 1) rotate(-180.000000) translate(-826.066779, -151.877146) " points="806.100135 227.466154 846.033422 227.466154 846.033422 76.2881373 806.100135 76.2881373"></polygon>
            <path d="M913.376058,71.4482359 L873.092592,71.4482359 L873.092592,222.626268 L912.335506,222.626268 L912.335506,200.053096 C923.446924,219.499384 943.588657,227.483919 962.344731,227.483919 C1003.66875,227.483919 1023.46014,197.621656 1023.46014,160.465074 L1023.46014,71.4482359 L983.181908,71.4482359 L983.181908,153.521091 C983.181908,174.358268 973.801256,191.022781 948.451537,191.022781 C925.533256,191.022781 913.376058,173.312488 913.376058,151.084423 L913.376058,71.4482359 Z" id="path1502" transform="translate(948.276368, 149.466077) scale(-1, 1) rotate(-180.000000) translate(-948.276368, -149.466077) "></path>
            <path d="M92.7293588,77.4463223 C61.0788113,77.4463223 35.4205863,103.104547 35.4205863,134.755095 C35.4205863,166.410871 61.0788113,192.069096 92.7293588,192.069096 L92.7293588,134.760324 L147.230211,152.533364 C149.055098,146.938438 150.038131,140.956573 150.038131,134.755095 C150.038131,103.104547 124.379906,77.4463223 92.7293588,77.4463223 M92.7293588,227.484454 C41.5174867,227.484454 9.9475983e-14,185.972196 9.9475983e-14,134.755095 C9.9475983e-14,83.5432227 41.5174867,42.025736 92.7293588,42.025736 C143.941231,42.025736 185.458718,83.5432227 185.458718,134.755095 C185.458718,185.972196 143.941231,227.484454 92.7293588,227.484454" id="path1506" transform="translate(92.729359, 134.755095) scale(-1, 1) rotate(-180.000000) translate(-92.729359, -134.755095) "></path>
            <path d="M1055.44051,237 L1121,73.7493797 L1103.55949,67 L1038,230.672457 L1055.44051,237 Z M1196.12934,230 C1203.84492,230 1210.78893,228.628906 1216.96139,225.886719 C1223.13385,223.144531 1228.39447,219.382812 1232.74324,214.601562 C1237.09202,209.820312 1240.38867,204.195312 1242.6332,197.726562 C1244.87773,191.257813 1246,184.296875 1246,176.84375 C1246,169.390625 1244.80759,162.429688 1242.42278,155.960938 C1240.03797,149.492188 1236.70624,143.867188 1232.42761,139.085937 C1228.14897,134.304687 1222.99356,130.542969 1216.96139,127.800781 C1210.92921,125.058594 1204.33591,123.6875 1197.18147,123.6875 C1192.41184,123.6875 1188.20335,124.179687 1184.55598,125.164062 C1180.90862,126.148437 1177.68211,127.414063 1174.87645,128.960938 C1172.07079,130.507813 1169.68597,132.160156 1167.72201,133.917969 C1165.75804,135.675781 1164.14479,137.398437 1162.88224,139.085937 L1162.88224,139.085937 L1162.25097,139.085937 L1162.25097,68 L1137,68 L1137,227.46875 L1160.98842,227.46875 L1160.98842,212.28125 L1161.40927,212.28125 C1165.05663,218.46875 1169.96654,222.96875 1176.139,225.78125 C1182.31145,228.59375 1188.9749,230 1196.12934,230 Z M1191.5,207 C1186.89716,207 1182.78251,206.152778 1179.15603,204.458333 C1175.52955,202.763889 1172.42612,200.50463 1169.84574,197.680556 C1167.26537,194.856481 1165.31265,191.608796 1163.98759,187.9375 C1162.66253,184.266204 1162,180.453704 1162,176.5 C1162,172.546296 1162.66253,168.733796 1163.98759,165.0625 C1165.31265,161.391204 1167.26537,158.143519 1169.84574,155.319444 C1172.42612,152.49537 1175.52955,150.236111 1179.15603,148.541667 C1182.78251,146.847222 1186.89716,146 1191.5,146 C1196.10284,146 1200.21749,146.847222 1203.84397,148.541667 C1207.47045,150.236111 1210.57388,152.49537 1213.15426,155.319444 C1215.73463,158.143519 1217.68735,161.391204 1219.01241,165.0625 C1220.33747,168.733796 1221,172.546296 1221,176.5 C1221,180.453704 1220.33747,184.266204 1219.01241,187.9375 C1217.68735,191.608796 1215.73463,194.856481 1213.15426,197.680556 C1210.57388,200.50463 1207.47045,202.763889 1203.84397,204.458333 C1200.21749,206.152778 1196.10284,207 1191.5,207 Z M1295,227 L1295,67 L1270,67 L1270,227 L1295,227 Z M1375,231 C1382.58621,231 1389.75096,229.72619 1396.49425,227.178571 C1403.23755,224.630952 1409.06769,221.021825 1413.98467,216.35119 C1418.90166,211.680556 1422.80013,206.054563 1425.68008,199.473214 C1428.56003,192.891865 1430,185.56746 1430,177.5 C1430,169.43254 1428.56003,162.108135 1425.68008,155.526786 C1422.80013,148.945437 1418.90166,143.319444 1413.98467,138.64881 C1409.06769,133.978175 1403.23755,130.369048 1396.49425,127.821429 C1389.75096,125.27381 1382.58621,124 1375,124 C1367.41379,124 1360.24904,125.27381 1353.50575,127.821429 C1346.76245,130.369048 1340.93231,133.978175 1336.01533,138.64881 C1331.09834,143.319444 1327.19987,148.945437 1324.31992,155.526786 C1321.43997,162.108135 1320,169.43254 1320,177.5 C1320,185.56746 1321.43997,192.891865 1324.31992,199.473214 C1327.19987,206.054563 1331.09834,211.680556 1336.01533,216.35119 C1340.93231,221.021825 1346.76245,224.630952 1353.50575,227.178571 C1360.24904,229.72619 1367.41379,231 1375,231 Z M1375.5,207 C1370.89716,207 1366.78251,206.152778 1363.15603,204.458333 C1359.52955,202.763889 1356.42612,200.50463 1353.84574,197.680556 C1351.26537,194.856481 1349.31265,191.608796 1347.98759,187.9375 C1346.66253,184.266204 1346,180.453704 1346,176.5 C1346,172.546296 1346.66253,168.733796 1347.98759,165.0625 C1349.31265,161.391204 1351.26537,158.143519 1353.84574,155.319444 C1356.42612,152.49537 1359.52955,150.236111 1363.15603,148.541667 C1366.78251,146.847222 1370.89716,146 1375.5,146 C1380.10284,146 1384.21749,146.847222 1387.84397,148.541667 C1391.47045,150.236111 1394.57388,152.49537 1397.15426,155.319444 C1399.73463,158.143519 1401.68735,161.391204 1403.01241,165.0625 C1404.33747,168.733796 1405,172.546296 1405,176.5 C1405,180.453704 1404.33747,184.266204 1403.01241,187.9375 C1401.68735,191.608796 1399.73463,194.856481 1397.15426,197.680556 C1394.57388,200.50463 1391.47045,202.763889 1387.84397,204.458333 C1384.21749,206.152778 1380.10284,207 1375.5,207 Z M1500.9749,278 C1510.79472,278 1519.28185,276.59745 1526.43629,273.79235 C1533.59073,270.98725 1539.5177,267.025046 1544.21718,261.905738 C1548.91667,256.78643 1552.38867,250.545082 1554.6332,243.181694 C1556.87773,235.818306 1558,227.578324 1558,218.461749 L1558,218.461749 L1558,126.52459 L1534.01158,126.52459 L1534.01158,141.672131 L1533.59073,141.672131 C1529.94337,135.500911 1525.03346,131.01275 1518.861,128.20765 C1512.68855,125.40255 1506.0251,124 1498.87066,124 C1491.0148,124 1484.03571,125.367486 1477.9334,128.102459 C1471.83108,130.837432 1466.60553,134.589253 1462.25676,139.357923 C1457.90798,144.126594 1454.61133,149.736794 1452.3668,156.188525 C1450.12227,162.640255 1449,169.582878 1449,177.016393 C1449,184.169399 1450.19241,190.901639 1452.57722,197.213115 C1454.96203,203.52459 1458.3639,208.994536 1462.78282,213.622951 C1467.20174,218.251366 1472.49743,221.93306 1478.66988,224.668033 C1484.84234,227.403005 1491.71622,228.770492 1499.29151,228.770492 C1505.60425,228.770492 1511.77671,227.54326 1517.80888,225.088798 C1523.84106,222.634335 1528.68082,218.952641 1532.32819,214.043716 L1532.32819,214.043716 L1532.74903,214.043716 L1532.74903,221.407104 C1532.74903,226.456284 1532.22297,231.049636 1531.17085,235.187158 C1530.11873,239.324681 1528.36519,242.86612 1525.91023,245.811475 C1523.45528,248.756831 1520.15862,251.071038 1516.02027,252.754098 C1511.88192,254.437158 1506.79665,255.278689 1500.76448,255.278689 C1493.61004,255.278689 1487.2973,254.016393 1481.82625,251.491803 C1476.35521,248.967213 1471.09459,245.39071 1466.0444,240.762295 L1466.0444,240.762295 L1450.89382,261.379781 C1458.04826,267.691257 1465.83398,272.039162 1474.25097,274.423497 C1482.66795,276.807832 1491.57593,278 1500.9749,278 Z M1504.29225,206 C1500.13732,206 1496.25939,205.232861 1492.65845,203.698582 C1489.05751,202.164303 1485.94131,200.072104 1483.30986,197.421986 C1480.6784,194.771868 1478.63556,191.70331 1477.18134,188.216312 C1475.72711,184.729314 1475,180.963357 1475,176.91844 C1475,172.455083 1475.72711,168.375296 1477.18134,164.679078 C1478.63556,160.982861 1480.64378,157.844563 1483.20599,155.264184 C1485.76819,152.683806 1488.84977,150.661348 1492.4507,149.196809 C1496.05164,147.73227 1500.06808,147 1504.5,147 C1513.64085,147 1520.84272,149.719858 1526.10563,155.159574 C1531.36854,160.599291 1534,167.712766 1534,176.5 C1534,180.684397 1533.30751,184.589835 1531.92254,188.216312 C1530.53756,191.84279 1528.56397,194.946217 1526.00176,197.526596 C1523.43955,200.106974 1520.32336,202.164303 1516.65317,203.698582 C1512.98298,205.232861 1508.86268,206 1504.29225,206 Z" id="/blog"></path>
        </g>
    </g>
</svg>