<?xml version="1.0" encoding="UTF-8" standalone="no"?>
<!-- Generator: Adobe Illustrator 16.0.0, SVG Export Plug-In . SVG Version: 6.00 Build 0)  -->

<svg
   xmlns:dc="http://purl.org/dc/elements/1.1/"
   xmlns:cc="http://creativecommons.org/ns#"
   xmlns:rdf="http://www.w3.org/1999/02/22-rdf-syntax-ns#"
   xmlns:svg="http://www.w3.org/2000/svg"
   xmlns="http://www.w3.org/2000/svg"
   xmlns:sodipodi="http://sodipodi.sourceforge.net/DTD/sodipodi-0.dtd"
   xmlns:inkscape="http://www.inkscape.org/namespaces/inkscape"
   version="1.1"
   id="Layer_1"
   x="0px"
   y="0px"
   width="120.011px"
   height="33.73px"
   viewBox="0 0 120.011 33.73"
   enable-background="new 0 0 120.011 33.73"
   xml:space="preserve"
   sodipodi:docname="appstore.svg"
   inkscape:version="0.92.3 (2405546, 2018-03-11)"><metadata
   id="metadata109"><rdf:RDF><cc:Work
       rdf:about=""><dc:format>image/svg+xml</dc:format><dc:type
         rdf:resource="http://purl.org/dc/dcmitype/StillImage" /><dc:title></dc:title></cc:Work></rdf:RDF></metadata><defs
   id="defs107" /><sodipodi:namedview
   pagecolor="#ffffff"
   bordercolor="#666666"
   borderopacity="1"
   objecttolerance="10"
   gridtolerance="10"
   guidetolerance="10"
   inkscape:pageopacity="0"
   inkscape:pageshadow="2"
   inkscape:window-width="1440"
   inkscape:window-height="877"
   id="namedview105"
   showgrid="false"
   inkscape:zoom="3.8681087"
   inkscape:cx="39.186898"
   inkscape:cy="4.9136312"
   inkscape:window-x="940"
   inkscape:window-y="276"
   inkscape:window-maximized="1"
   inkscape:current-layer="Layer_1" />

<g
   transform="matrix(1.0898277,0,0,1.0898277,0.41159462,0.95460558)"
   id="g186"><g
     id="g136"><g
       id="g134"><path
         style="fill:#ffffff"
         inkscape:connector-curvature="0"
         d="M 17.336,13.566 C 17.307,10.343 19.975,8.775 20.097,8.703 18.586,6.5 16.244,6.199 15.421,6.176 13.454,5.969 11.546,7.352 10.544,7.352 9.522,7.352 7.979,6.196 6.316,6.229 4.176,6.262 2.174,7.5 1.076,9.426 -1.19,13.348 0.5,19.113 2.671,22.283 c 1.086,1.555 2.355,3.287 4.016,3.227 1.625,-0.066 2.232,-1.035 4.193,-1.035 1.943,0 2.513,1.035 4.207,0.996 1.744,-0.027 2.842,-1.561 3.89,-3.127 1.255,-1.779 1.759,-3.533 1.779,-3.623 -0.041,-0.014 -3.387,-1.291 -3.42,-5.155 z"
         id="path130" /><path
         style="fill:#ffffff"
         inkscape:connector-curvature="0"
         d="M 14.136,4.09 C 15.01,2.996 15.608,1.51 15.442,0 c -1.265,0.057 -2.847,0.875 -3.758,1.943 -0.806,0.943 -1.526,2.486 -1.34,3.939 1.421,0.106 2.88,-0.718 3.792,-1.792 z"
         id="path132" /></g></g><g
     id="g154"><path
       style="fill:#ffffff"
       inkscape:connector-curvature="0"
       d="m 40.853,25.287 h -2.271 l -1.244,-3.91 h -4.324 l -1.185,3.91 h -2.211 l 4.284,-13.309 h 2.646 z m -3.89,-5.549 -1.125,-3.475 c -0.119,-0.355 -0.342,-1.191 -0.671,-2.508 h -0.04 c -0.131,0.566 -0.342,1.402 -0.632,2.508 l -1.105,3.475 z"
       id="path138" /><path
       style="fill:#ffffff"
       inkscape:connector-curvature="0"
       d="m 51.87,20.371 c 0,1.631 -0.441,2.922 -1.323,3.869 -0.79,0.842 -1.771,1.264 -2.942,1.264 -1.264,0 -2.172,-0.453 -2.725,-1.361 h -0.04 v 5.055 H 42.708 V 18.85 c 0,-1.025 -0.027,-2.078 -0.079,-3.158 h 1.875 l 0.119,1.521 h 0.04 c 0.711,-1.146 1.79,-1.719 3.238,-1.719 1.132,0 2.077,0.447 2.833,1.342 0.758,0.896 1.136,2.074 1.136,3.535 z m -2.172,0.078 c 0,-0.934 -0.21,-1.705 -0.632,-2.311 -0.461,-0.631 -1.08,-0.947 -1.856,-0.947 -0.526,0 -1.004,0.176 -1.431,0.523 -0.428,0.35 -0.708,0.807 -0.839,1.373 -0.066,0.264 -0.099,0.479 -0.099,0.648 v 1.602 c 0,0.697 0.214,1.285 0.642,1.768 0.428,0.48 0.984,0.721 1.668,0.721 0.803,0 1.428,-0.311 1.875,-0.928 0.448,-0.619 0.672,-1.435 0.672,-2.449 z"
       id="path140" /><path
       style="fill:#ffffff"
       inkscape:connector-curvature="0"
       d="m 62.907,20.371 c 0,1.631 -0.441,2.922 -1.324,3.869 -0.789,0.842 -1.77,1.264 -2.941,1.264 -1.264,0 -2.172,-0.453 -2.724,-1.361 h -0.04 v 5.055 H 53.746 V 18.85 c 0,-1.025 -0.027,-2.078 -0.079,-3.158 h 1.875 l 0.119,1.521 h 0.04 c 0.71,-1.146 1.789,-1.719 3.237,-1.719 1.131,0 2.076,0.447 2.834,1.342 0.756,0.896 1.135,2.074 1.135,3.535 z m -2.172,0.078 c 0,-0.934 -0.211,-1.705 -0.633,-2.311 -0.461,-0.631 -1.078,-0.947 -1.855,-0.947 -0.527,0 -1.004,0.176 -1.432,0.523 -0.428,0.35 -0.707,0.807 -0.838,1.373 -0.065,0.264 -0.1,0.479 -0.1,0.648 v 1.602 c 0,0.697 0.214,1.285 0.641,1.768 0.428,0.479 0.983,0.721 1.67,0.721 0.803,0 1.428,-0.311 1.875,-0.928 0.448,-0.619 0.672,-1.435 0.672,-2.449 z"
       id="path142" /><path
       style="fill:#ffffff"
       inkscape:connector-curvature="0"
       d="m 75.247,21.555 c 0,1.133 -0.393,2.053 -1.182,2.764 -0.867,0.777 -2.074,1.166 -3.625,1.166 -1.432,0 -2.58,-0.277 -3.449,-0.83 l 0.494,-1.777 c 0.936,0.566 1.963,0.852 3.082,0.852 0.803,0 1.428,-0.182 1.877,-0.545 0.447,-0.361 0.67,-0.848 0.67,-1.453 0,-0.541 -0.184,-0.996 -0.553,-1.365 -0.367,-0.369 -0.98,-0.711 -1.836,-1.027 -2.33,-0.869 -3.494,-2.143 -3.494,-3.816 0,-1.094 0.408,-1.992 1.225,-2.689 0.814,-0.699 1.9,-1.049 3.258,-1.049 1.211,0 2.217,0.211 3.02,0.633 l -0.531,1.738 c -0.75,-0.408 -1.6,-0.613 -2.549,-0.613 -0.75,0 -1.336,0.186 -1.756,0.555 -0.354,0.328 -0.531,0.729 -0.531,1.205 0,0.525 0.201,0.961 0.609,1.303 0.355,0.314 1,0.658 1.938,1.027 1.145,0.461 1.984,1 2.525,1.617 0.538,0.612 0.808,1.384 0.808,2.304 z"
       id="path144" /><path
       style="fill:#ffffff"
       inkscape:connector-curvature="0"
       d="m 82.295,17.291 h -2.35 v 4.658 c 0,1.186 0.414,1.777 1.244,1.777 0.381,0 0.697,-0.033 0.947,-0.1 l 0.059,1.619 c -0.42,0.158 -0.973,0.236 -1.658,0.236 -0.842,0 -1.5,-0.256 -1.975,-0.77 -0.473,-0.514 -0.711,-1.375 -0.711,-2.588 v -4.836 h -1.4 v -1.6 h 1.4 v -1.758 l 2.094,-0.631 v 2.389 h 2.35 z"
       id="path146" /><path
       style="fill:#ffffff"
       inkscape:connector-curvature="0"
       d="m 92.899,20.41 c 0,1.475 -0.422,2.686 -1.264,3.633 -0.883,0.975 -2.055,1.461 -3.516,1.461 -1.408,0 -2.529,-0.467 -3.365,-1.4 -0.836,-0.936 -1.254,-2.113 -1.254,-3.535 0,-1.486 0.43,-2.705 1.293,-3.652 0.859,-0.947 2.021,-1.422 3.482,-1.422 1.408,0 2.541,0.469 3.396,1.402 0.82,0.908 1.228,2.078 1.228,3.513 z m -2.213,0.069 c 0,-0.885 -0.188,-1.645 -0.57,-2.277 -0.447,-0.766 -1.088,-1.146 -1.914,-1.146 -0.857,0 -1.51,0.383 -1.955,1.146 -0.385,0.635 -0.572,1.406 -0.572,2.318 0,0.885 0.188,1.643 0.572,2.275 0.461,0.766 1.104,1.148 1.936,1.148 0.814,0 1.453,-0.391 1.914,-1.168 0.392,-0.644 0.589,-1.412 0.589,-2.296 z"
       id="path148" /><path
       style="fill:#ffffff"
       inkscape:connector-curvature="0"
       d="m 99.829,17.566 c -0.211,-0.039 -0.436,-0.059 -0.672,-0.059 -0.75,0 -1.33,0.281 -1.738,0.85 -0.355,0.5 -0.533,1.131 -0.533,1.895 v 5.035 h -2.131 l 0.02,-6.574 c 0,-1.105 -0.025,-2.113 -0.08,-3.021 h 1.857 l 0.078,1.836 h 0.059 c 0.227,-0.631 0.58,-1.139 1.066,-1.52 0.475,-0.344 0.988,-0.514 1.541,-0.514 0.197,0 0.375,0.014 0.533,0.039 z"
       id="path150" /><path
       style="fill:#ffffff"
       inkscape:connector-curvature="0"
       d="m 109.364,20.035 c 0,0.381 -0.025,0.703 -0.078,0.967 h -6.396 c 0.025,0.947 0.334,1.674 0.928,2.174 0.539,0.445 1.236,0.67 2.094,0.67 0.945,0 1.811,-0.15 2.588,-0.453 l 0.334,1.479 c -0.908,0.396 -1.98,0.594 -3.217,0.594 -1.488,0 -2.656,-0.438 -3.508,-1.312 -0.848,-0.875 -1.271,-2.051 -1.271,-3.525 0,-1.445 0.395,-2.65 1.186,-3.611 0.828,-1.027 1.947,-1.539 3.355,-1.539 1.383,0 2.43,0.512 3.141,1.539 0.561,0.812 0.844,1.82 0.844,3.017 z m -2.033,-0.553 c 0.014,-0.633 -0.125,-1.178 -0.414,-1.639 -0.369,-0.594 -0.936,-0.891 -1.699,-0.891 -0.697,0 -1.264,0.289 -1.697,0.869 -0.354,0.461 -0.564,1.016 -0.631,1.658 h 4.441 z"
       id="path152" /></g><g
     id="g184"><g
       id="g182"><path
         style="fill:#ffffff"
         inkscape:connector-curvature="0"
         d="m 36.258,3.791 c 0,1.178 -0.353,2.064 -1.058,2.658 -0.653,0.549 -1.581,0.824 -2.783,0.824 -0.596,0 -1.106,-0.025 -1.533,-0.078 v -6.43 c 0.557,-0.09 1.157,-0.137 1.805,-0.137 1.145,0 2.008,0.248 2.59,0.746 0.652,0.565 0.979,1.37 0.979,2.417 z M 35.153,3.82 c 0,-0.762 -0.202,-1.348 -0.606,-1.756 -0.404,-0.406 -0.994,-0.611 -1.771,-0.611 -0.33,0 -0.611,0.023 -0.844,0.068 V 6.41 c 0.129,0.021 0.365,0.029 0.708,0.029 0.802,0 1.421,-0.223 1.857,-0.668 0.436,-0.447 0.656,-1.095 0.656,-1.951 z"
         id="path156" /><path
         style="fill:#ffffff"
         inkscape:connector-curvature="0"
         d="m 42.117,4.82 c 0,0.725 -0.207,1.318 -0.621,1.785 -0.434,0.479 -1.009,0.717 -1.727,0.717 -0.692,0 -1.243,-0.229 -1.654,-0.688 C 37.705,6.176 37.5,5.596 37.5,4.898 c 0,-0.73 0.211,-1.33 0.635,-1.795 0.424,-0.465 0.994,-0.697 1.712,-0.697 0.692,0 1.248,0.229 1.669,0.688 0.4,0.445 0.601,1.021 0.601,1.726 z M 41.03,4.854 c 0,-0.436 -0.094,-0.807 -0.281,-1.119 -0.22,-0.375 -0.533,-0.562 -0.94,-0.562 -0.421,0 -0.741,0.188 -0.961,0.562 -0.188,0.312 -0.281,0.691 -0.281,1.139 0,0.436 0.094,0.809 0.281,1.119 0.227,0.375 0.543,0.564 0.951,0.564 0.4,0 0.714,-0.191 0.94,-0.574 0.194,-0.319 0.291,-0.694 0.291,-1.129 z"
         id="path158" /><path
         style="fill:#ffffff"
         inkscape:connector-curvature="0"
         d="m 49.973,2.502 -1.475,4.715 h -0.96 L 46.927,5.168 C 46.772,4.658 46.646,4.15 46.548,3.647 H 46.529 C 46.438,4.165 46.312,4.672 46.15,5.168 L 45.501,7.217 H 44.53 L 43.143,2.502 h 1.077 l 0.533,2.24 c 0.129,0.531 0.235,1.035 0.32,1.514 h 0.019 C 45.17,5.861 45.299,5.36 45.481,4.752 l 0.669,-2.25 h 0.854 l 0.641,2.203 c 0.155,0.537 0.281,1.055 0.378,1.553 h 0.029 c 0.071,-0.486 0.178,-1.002 0.32,-1.553 l 0.572,-2.203 z"
         id="path160" /><path
         style="fill:#ffffff"
         inkscape:connector-curvature="0"
         d="M 55.405,7.217 H 54.358 V 4.516 c 0,-0.832 -0.316,-1.248 -0.95,-1.248 -0.311,0 -0.562,0.115 -0.757,0.344 C 52.458,3.84 52.36,4.109 52.36,4.418 V 7.215 H 51.312 V 3.85 c 0,-0.414 -0.013,-0.863 -0.038,-1.35 h 0.921 l 0.049,0.736 h 0.029 c 0.122,-0.229 0.304,-0.418 0.543,-0.568 0.284,-0.176 0.602,-0.266 0.95,-0.266 0.44,0 0.806,0.143 1.097,0.428 0.363,0.35 0.542,0.869 0.542,1.562 z"
         id="path162" /><path
         style="fill:#ffffff"
         inkscape:connector-curvature="0"
         d="M 58.296,7.217 H 57.249 V 0.34 h 1.047 z"
         id="path164" /><path
         style="fill:#ffffff"
         inkscape:connector-curvature="0"
         d="m 64.466,4.82 c 0,0.725 -0.207,1.318 -0.621,1.785 -0.434,0.479 -1.01,0.717 -1.727,0.717 -0.693,0 -1.244,-0.229 -1.654,-0.688 -0.41,-0.459 -0.615,-1.039 -0.615,-1.736 0,-0.73 0.211,-1.33 0.635,-1.795 0.425,-0.465 0.994,-0.697 1.711,-0.697 0.693,0 1.248,0.229 1.671,0.688 0.399,0.445 0.6,1.021 0.6,1.726 z m -1.088,0.034 c 0,-0.436 -0.094,-0.807 -0.281,-1.119 -0.219,-0.375 -0.533,-0.562 -0.938,-0.562 -0.423,0 -0.742,0.188 -0.962,0.562 -0.188,0.312 -0.28,0.691 -0.28,1.139 0,0.436 0.095,0.809 0.28,1.119 0.228,0.375 0.544,0.564 0.951,0.564 0.4,0 0.713,-0.191 0.939,-0.574 0.195,-0.319 0.291,-0.694 0.291,-1.129 z"
         id="path166" /><path
         style="fill:#ffffff"
         inkscape:connector-curvature="0"
         d="M 69.538,7.217 H 68.597 L 68.519,6.674 h -0.027 c -0.322,0.432 -0.781,0.648 -1.379,0.648 -0.443,0 -0.805,-0.143 -1.074,-0.426 -0.246,-0.258 -0.37,-0.58 -0.37,-0.961 0,-0.576 0.241,-1.014 0.723,-1.318 0.482,-0.304 1.16,-0.453 2.033,-0.445 v -0.09 c 0,-0.619 -0.326,-0.93 -0.98,-0.93 -0.465,0 -0.875,0.117 -1.229,0.348 L 66.003,2.812 c 0.438,-0.271 0.979,-0.406 1.617,-0.406 1.232,0 1.85,0.65 1.85,1.949 v 1.736 c -0.001,0.471 0.023,0.847 0.068,1.126 z M 68.45,5.596 V 4.869 c -1.156,-0.02 -1.734,0.297 -1.734,0.949 0,0.246 0.066,0.43 0.201,0.553 0.135,0.123 0.307,0.186 0.512,0.186 0.23,0 0.445,-0.074 0.641,-0.219 0.197,-0.146 0.318,-0.33 0.363,-0.559 0.011,-0.05 0.017,-0.113 0.017,-0.183 z"
         id="path168" /><path
         style="fill:#ffffff"
         inkscape:connector-curvature="0"
         d="m 75.493,7.217 h -0.93 L 74.514,6.459 H 74.485 C 74.188,7.035 73.682,7.322 72.971,7.322 72.403,7.322 71.93,7.099 71.555,6.654 71.18,6.207 70.993,5.629 70.993,4.918 c 0,-0.764 0.203,-1.381 0.611,-1.854 0.395,-0.439 0.879,-0.66 1.455,-0.66 0.633,0 1.076,0.213 1.328,0.641 h 0.02 V 0.34 h 1.049 v 5.605 c 0,0.459 0.011,0.883 0.037,1.272 z M 74.407,5.229 V 4.441 c 0,-0.135 -0.01,-0.246 -0.029,-0.33 C 74.319,3.859 74.192,3.648 73.999,3.476 73.804,3.306 73.569,3.22 73.298,3.22 c -0.391,0 -0.697,0.154 -0.922,0.465 -0.223,0.311 -0.336,0.709 -0.336,1.193 0,0.467 0.107,0.844 0.322,1.135 0.227,0.311 0.533,0.465 0.916,0.465 0.344,0 0.619,-0.129 0.828,-0.387 0.201,-0.239 0.301,-0.527 0.301,-0.862 z"
         id="path170" /><path
         style="fill:#ffffff"
         inkscape:connector-curvature="0"
         d="m 84.456,4.82 c 0,0.725 -0.207,1.318 -0.621,1.785 -0.434,0.479 -1.008,0.717 -1.727,0.717 -0.691,0 -1.242,-0.229 -1.654,-0.688 -0.41,-0.459 -0.615,-1.039 -0.615,-1.736 0,-0.73 0.211,-1.33 0.635,-1.795 0.424,-0.465 0.994,-0.697 1.713,-0.697 0.691,0 1.248,0.229 1.668,0.688 0.399,0.445 0.601,1.021 0.601,1.726 z M 83.37,4.854 C 83.37,4.418 83.276,4.047 83.089,3.735 82.868,3.36 82.556,3.173 82.148,3.173 c -0.42,0 -0.738,0.188 -0.961,0.562 -0.188,0.312 -0.279,0.691 -0.279,1.139 0,0.436 0.094,0.809 0.279,1.119 0.229,0.375 0.543,0.564 0.951,0.564 0.4,0 0.715,-0.191 0.941,-0.574 0.193,-0.319 0.291,-0.694 0.291,-1.129 z"
         id="path172" /><path
         style="fill:#ffffff"
         inkscape:connector-curvature="0"
         d="M 90.09,7.217 H 89.043 V 4.516 c 0,-0.832 -0.316,-1.248 -0.951,-1.248 -0.311,0 -0.561,0.115 -0.756,0.344 -0.193,0.229 -0.291,0.498 -0.291,0.807 V 7.216 H 85.996 V 3.85 c 0,-0.414 -0.012,-0.863 -0.037,-1.35 h 0.92 l 0.049,0.736 h 0.029 C 87.08,3.007 87.262,2.818 87.5,2.668 c 0.285,-0.176 0.602,-0.266 0.951,-0.266 0.439,0 0.805,0.143 1.096,0.428 0.363,0.35 0.543,0.869 0.543,1.562 z"
         id="path174" /><path
         style="fill:#ffffff"
         inkscape:connector-curvature="0"
         d="m 97.143,3.287 h -1.152 v 2.289 c 0,0.582 0.203,0.873 0.609,0.873 0.189,0 0.344,-0.016 0.467,-0.049 l 0.027,0.795 C 96.887,7.273 96.615,7.312 96.28,7.312 95.868,7.312 95.546,7.187 95.311,6.935 95.079,6.683 94.961,6.259 94.961,5.664 V 3.287 H 94.272 V 2.502 h 0.689 V 1.639 L 95.988,1.328 V 2.5 h 1.154 v 0.787 z"
         id="path176" /><path
         style="fill:#ffffff"
         inkscape:connector-curvature="0"
         d="m 102.692,7.217 h -1.049 V 4.535 c 0,-0.844 -0.316,-1.268 -0.949,-1.268 -0.486,0 -0.818,0.246 -1,0.734 -0.031,0.104 -0.049,0.23 -0.049,0.379 V 7.214 H 98.598 V 0.34 h 1.047 v 2.84 h 0.02 c 0.33,-0.518 0.803,-0.775 1.416,-0.775 0.434,0 0.793,0.143 1.078,0.428 0.355,0.355 0.533,0.883 0.533,1.58 z"
         id="path178" /><path
         style="fill:#ffffff"
         inkscape:connector-curvature="0"
         d="m 108.415,4.637 c 0,0.188 -0.014,0.346 -0.039,0.475 h -3.143 c 0.014,0.465 0.164,0.82 0.455,1.066 0.266,0.221 0.609,0.33 1.029,0.33 0.465,0 0.889,-0.074 1.27,-0.223 l 0.164,0.729 c -0.445,0.193 -0.973,0.291 -1.582,0.291 -0.729,0 -1.305,-0.215 -1.721,-0.646 -0.418,-0.43 -0.625,-1.006 -0.625,-1.73 0,-0.711 0.193,-1.303 0.582,-1.775 0.406,-0.504 0.955,-0.756 1.648,-0.756 0.678,0 1.193,0.252 1.541,0.756 0.282,0.399 0.421,0.895 0.421,1.483 z m -1,-0.272 c 0.008,-0.311 -0.061,-0.58 -0.203,-0.805 -0.182,-0.291 -0.459,-0.438 -0.834,-0.438 -0.342,0 -0.621,0.143 -0.834,0.428 -0.174,0.227 -0.277,0.498 -0.311,0.814 h 2.182 z"
         id="path180" /></g></g></g></svg>