<svg width="22" height="16" viewBox="0 0 22 16" fill="none" xmlns="http://www.w3.org/2000/svg">
<g clip-path="url(#clip0)">
<path fill-rule="evenodd" clip-rule="evenodd" d="M0.241699 0H21.575V16H0.241699V0Z" fill="#229E45"/>
<path fill-rule="evenodd" clip-rule="evenodd" d="M10.9551 14.5335L21.0051 8.01013L10.8951 1.4668L0.811768 8.02346L10.9551 14.5335Z" fill="#F8E509"/>
<path fill-rule="evenodd" clip-rule="evenodd" d="M15.3349 8C15.3349 10.3433 13.4316 12.2433 11.0816 12.2433C10.2418 12.242 9.42126 11.9917 8.72371 11.5242C8.02615 11.0566 7.48288 10.3927 7.16258 9.61641C6.84228 8.84012 6.75933 7.9863 6.92421 7.16287C7.08909 6.33945 7.49441 5.5834 8.08891 4.99029C8.68342 4.39718 9.44042 3.99365 10.2642 3.83071C11.088 3.66777 11.9417 3.75273 12.7172 4.07486C13.4927 4.39698 14.1553 4.94181 14.6213 5.64046C15.0872 6.33912 15.3355 7.16023 15.3349 8Z" fill="#2B49A3"/>
<path fill-rule="evenodd" clip-rule="evenodd" d="M9.68487 10.5437L9.55153 10.4671L9.4182 10.5337L9.4482 10.3837L9.34153 10.2704L9.49153 10.2537L9.56487 10.1204L9.6282 10.2604L9.77487 10.2871L9.66487 10.3871L9.68487 10.5437ZM12.5315 11.2637L12.4015 11.1871L12.2682 11.2537L12.2949 11.1037L12.1915 10.9937L12.3415 10.9771L12.4115 10.8404L12.4782 10.9804L12.6249 11.0071L12.5115 11.1104L12.5315 11.2637ZM11.3049 10.1104L11.1915 10.0437L11.0749 10.1037L11.1015 9.97374L11.0082 9.87707L11.1415 9.86374L11.2015 9.74374L11.2549 9.86707L11.3849 9.8904L11.2849 9.9804L11.3049 10.1104ZM14.1849 9.69707L14.0715 9.6304L13.9549 9.6904L13.9815 9.5604L13.8915 9.46707L14.0215 9.45374L14.0815 9.33707L14.1349 9.45707L14.2615 9.4804L14.1649 9.56707L14.1849 9.69707ZM11.2549 8.83374L11.1215 8.7604L10.9882 8.82707L11.0149 8.67374L10.9115 8.56374L11.0615 8.54707L11.1315 8.4104L11.1982 8.5504L11.3449 8.57707L11.2315 8.68374L11.2549 8.83374ZM7.74487 7.51707L7.61153 7.44374L7.4782 7.5104L7.51153 7.35707L7.40153 7.24707L7.55487 7.2304L7.62153 7.09374L7.6882 7.23374L7.83487 7.2604L7.72487 7.36374L7.74487 7.51707ZM8.1682 9.2704L8.03487 9.19374L7.90153 9.2604L7.93153 9.1104L7.82487 9.0004L7.97487 8.9804L8.04487 8.84707L8.11153 8.98707L8.2582 9.01374L8.1482 9.11707L8.1682 9.2704ZM12.5482 6.87374L12.4282 6.80707L12.3082 6.86707L12.3349 6.73374L12.2415 6.63374L12.3749 6.61707L12.4382 6.49707L12.4949 6.62374L12.6282 6.64707L12.5282 6.73707L12.5482 6.87374ZM12.3049 8.01374L12.2149 7.9604L12.1182 8.00707L12.1382 7.9004L12.0649 7.82374L12.1715 7.8104L12.2215 7.71707L12.2649 7.81707L12.3649 7.83374L12.2915 7.90707L12.3049 8.01374ZM7.55153 9.58707L7.46153 9.53707L7.37153 9.5804L7.39153 9.4804L7.32153 9.40707L7.42153 9.39374L7.4682 9.30374L7.51153 9.39707L7.61153 9.41707L7.53487 9.48374L7.55153 9.58707ZM14.2082 9.99374L14.1349 9.95707L14.0615 9.9904L14.0782 9.91374L14.0215 9.8604L14.1015 9.8504L14.1415 9.78374L14.1749 9.8504L14.2582 9.86707L14.1949 9.91707" fill="#FFFFEF"/>
<path fill-rule="evenodd" clip-rule="evenodd" d="M7.55153 9.58607L7.46153 9.53607L7.37153 9.5794L7.39153 9.4794L7.32153 9.40607L7.42153 9.39273L7.4682 9.30273L7.51153 9.39607L7.61153 9.41607L7.53487 9.48273" fill="#FFFFEF"/>
<path fill-rule="evenodd" clip-rule="evenodd" d="M7.55153 9.58707L7.46153 9.53707L7.37153 9.5804L7.39153 9.4804L7.32153 9.40707L7.42153 9.39374L7.4682 9.30374L7.51153 9.39707L7.61153 9.41707L7.53487 9.48374L7.55153 9.58707ZM8.94487 9.58374L8.8582 9.53707L8.7682 9.5804L8.7882 9.4804L8.7182 9.40707L8.8182 9.39374L8.86487 9.30374L8.9082 9.39707L9.0082 9.41374L8.93154 9.48374L8.94487 9.58374ZM8.77154 10.0504L8.68487 10.0004L8.59487 10.0471L8.61487 9.94707L8.54487 9.8704L8.64487 9.85707L8.69154 9.76707L8.73487 9.8604L8.83487 9.8804L8.7582 9.94707L8.77154 10.0504ZM11.6715 9.20707L11.5849 9.15374L11.4915 9.2004L11.5115 9.1004L11.4449 9.02374L11.5449 9.01374L11.5915 8.92374L11.6315 9.01707L11.7315 9.03374L11.6582 9.10374L11.6715 9.20707ZM10.8215 9.20374L10.7315 9.15374L10.6415 9.2004L10.6615 9.1004L10.5949 9.02374L10.6949 9.01374L10.7415 8.9204L10.7815 9.01707L10.8815 9.03374L10.8082 9.10374L10.8215 9.20374ZM8.51487 8.9104L8.4582 8.87707L8.40154 8.90374L8.41487 8.8404L8.37153 8.79374L8.43487 8.78707L8.46154 8.7304L8.4882 8.7904L8.55154 8.8004L8.50487 8.84374L8.51487 8.9104ZM14.0982 10.3571L14.0115 10.3071L13.9215 10.3537L13.9415 10.2537L13.8715 10.1771L13.9715 10.1637L14.0182 10.0737L14.0615 10.1671L14.1615 10.1871L14.0849 10.2537L14.0982 10.3571ZM13.3915 10.4537L13.3182 10.4071L13.2415 10.4471L13.2582 10.3604L13.2015 10.3004L13.2849 10.2904L13.3249 10.2137L13.3582 10.2937L13.4415 10.3071L13.3782 10.3671L13.3915 10.4537ZM13.7249 10.4437L13.6582 10.4037L13.5882 10.4371L13.6015 10.3604L13.5482 10.3037L13.6249 10.2937L13.6615 10.2271L13.6949 10.2937L13.7715 10.3104L13.7149 10.3637L13.7249 10.4437ZM14.6849 9.60374L14.6182 9.5704L14.5515 9.60374L14.5682 9.52707L14.5149 9.4704L14.5915 9.4604L14.6249 9.39374L14.6582 9.46374L14.7282 9.47707L14.6749 9.5304L14.6849 9.60374ZM13.3815 10.9237L13.2982 10.8771L13.2082 10.9171L13.2282 10.8237L13.1615 10.7571L13.2615 10.7471L13.3049 10.6637L13.3449 10.7504L13.4449 10.7671L13.3682 10.8304L13.3815 10.9237ZM13.3882 11.3037L13.3082 11.2571L13.2282 11.3004L13.2482 11.2071L13.1849 11.1404L13.2749 11.1271L13.3149 11.0437L13.3515 11.1304L13.4415 11.1471L13.3749 11.2137L13.3882 11.3037ZM12.7415 10.4437L12.6782 10.4037L12.6115 10.4371L12.6249 10.3637L12.5749 10.3071L12.6482 10.3004L12.6815 10.2337L12.7149 10.3004L12.7882 10.3137L12.7349 10.3671L12.7415 10.4437ZM12.1415 10.4437L12.0749 10.4037L12.0082 10.4371L12.0249 10.3637L11.9715 10.3071L12.0482 10.3004L12.0815 10.2337L12.1149 10.3004L12.1849 10.3137L12.1315 10.3671L12.1415 10.4437ZM11.1182 9.54707L11.0515 9.5104L10.9849 9.54374L11.0015 9.46707L10.9482 9.41374L11.0215 9.40374L11.0549 9.33707L11.0882 9.40374L11.1615 9.4204L11.1082 9.4704L11.1182 9.54707ZM11.2315 11.3704L11.1782 11.3404L11.1182 11.3704L11.1315 11.3037L11.0882 11.2571L11.1515 11.2504L11.1815 11.1937L11.2082 11.2537L11.2715 11.2637L11.2249 11.3071L11.2315 11.3704ZM9.68487 8.4204L9.55154 8.34374L9.4182 8.4104L9.4482 8.2604L9.34154 8.1504L9.49154 8.1304L9.56487 7.99707L9.6282 8.13707L9.77487 8.16374L9.66487 8.26707" fill="#FFFFEF"/>
<path fill-rule="evenodd" clip-rule="evenodd" d="M15.055 9.52693C15.1375 9.31266 15.2022 9.0919 15.2483 8.86693C12.9883 6.8836 10.4716 5.86693 7.29163 6.07693C7.1763 6.3001 7.08147 6.53328 7.0083 6.7736C10.775 6.4136 13.5416 8.08027 15.055 9.52693Z" fill="white"/>
<path d="M14.0418 8.41353L14.1185 8.45686C14.107 8.4795 14.1035 8.50532 14.1085 8.53019C14.1163 8.55431 14.133 8.57457 14.1551 8.58686C14.1785 8.60353 14.2018 8.61353 14.2218 8.61019C14.2418 8.61019 14.2551 8.60019 14.2651 8.58686C14.271 8.57801 14.2733 8.56734 14.2718 8.55686C14.2691 8.54455 14.2634 8.5331 14.2551 8.52353C14.2485 8.51353 14.2318 8.49019 14.2051 8.46353C14.1777 8.43524 14.1572 8.40102 14.1451 8.36353C14.1368 8.33515 14.139 8.30473 14.1512 8.2778C14.1635 8.25088 14.185 8.22925 14.2118 8.21686C14.2361 8.20674 14.2628 8.20441 14.2885 8.21019C14.3198 8.21741 14.3493 8.23103 14.3751 8.25019C14.4218 8.28353 14.4518 8.31686 14.4618 8.35686C14.4664 8.37557 14.467 8.39504 14.4636 8.414C14.4601 8.43296 14.4527 8.45097 14.4418 8.46686L14.3618 8.41686C14.3718 8.39686 14.3751 8.37686 14.3685 8.36019C14.3651 8.34353 14.3518 8.32686 14.3285 8.31353C14.3114 8.29975 14.2904 8.29161 14.2685 8.29019C14.2624 8.28999 14.2564 8.29143 14.2512 8.29437C14.2459 8.2973 14.2415 8.30162 14.2385 8.30686C14.2318 8.31686 14.2318 8.32686 14.2351 8.34019C14.2385 8.35353 14.2551 8.38019 14.2885 8.41353C14.3218 8.44686 14.3418 8.47686 14.3551 8.49686C14.367 8.51871 14.3724 8.54351 14.3707 8.56833C14.3689 8.59314 14.36 8.61693 14.3451 8.63686C14.3295 8.65952 14.3075 8.67695 14.2818 8.68686C14.2568 8.69837 14.2289 8.70186 14.2018 8.69686C14.1718 8.69019 14.1418 8.67686 14.1085 8.65353C14.0585 8.62019 14.0285 8.58353 14.0185 8.54353C14.0076 8.49817 14.0148 8.45037 14.0385 8.41019L14.0418 8.41353ZM13.6551 8.16019L13.7385 8.20353C13.7282 8.22655 13.7258 8.25236 13.7318 8.27686C13.7403 8.29974 13.7569 8.31871 13.7785 8.33019C13.8051 8.34686 13.8251 8.35353 13.8451 8.35019C13.8651 8.35019 13.8785 8.34019 13.8885 8.32353C13.8935 8.3156 13.8959 8.30624 13.8951 8.29686C13.8951 8.28686 13.8885 8.27353 13.8785 8.26353C13.8614 8.24291 13.8436 8.2229 13.8251 8.20353C13.7885 8.16686 13.7651 8.13686 13.7585 8.11019C13.753 8.09304 13.7514 8.0749 13.7537 8.05705C13.756 8.0392 13.7622 8.02207 13.7718 8.00686C13.7845 7.98629 13.8031 7.97003 13.8251 7.96019C13.848 7.94963 13.8736 7.94615 13.8985 7.95019C13.9293 7.95539 13.9588 7.96672 13.9851 7.98353C14.0351 8.01686 14.0651 8.05019 14.0751 8.08686C14.0812 8.1056 14.0832 8.12542 14.0809 8.14499C14.0786 8.16455 14.0721 8.18338 14.0618 8.20019L13.9785 8.15353C13.9885 8.13019 13.9918 8.11353 13.9851 8.09686C13.9785 8.08019 13.9651 8.06353 13.9418 8.05019C13.9234 8.03696 13.9012 8.02995 13.8785 8.03019C13.873 8.03056 13.8677 8.03228 13.8631 8.03518C13.8584 8.03809 13.8545 8.0421 13.8518 8.04686C13.8451 8.05686 13.8451 8.06686 13.8485 8.08019C13.8518 8.09353 13.8718 8.12019 13.9051 8.15353C13.9385 8.18686 13.9618 8.21353 13.9718 8.23353C13.9852 8.25443 13.9923 8.27872 13.9923 8.30353C13.9923 8.32833 13.9852 8.35262 13.9718 8.37353C13.9574 8.39678 13.9366 8.41532 13.9118 8.42686C13.8868 8.43837 13.8589 8.44186 13.8318 8.43686C13.7975 8.43106 13.7647 8.4186 13.7351 8.40019C13.6921 8.37722 13.6589 8.33928 13.6418 8.29353C13.6289 8.24902 13.6337 8.20127 13.6551 8.16019ZM13.1818 8.03353L13.4251 7.63353L13.7185 7.81686L13.6785 7.88353L13.4651 7.75019L13.4118 7.84019L13.6118 7.96353L13.5685 8.03019L13.3685 7.90686L13.3018 8.01686L13.5251 8.15019L13.4851 8.21686L13.1851 8.03353H13.1818ZM12.4918 7.46686L12.5285 7.40019L12.7085 7.49019L12.6251 7.65686C12.5985 7.66353 12.5651 7.66686 12.5251 7.66353C12.4867 7.65929 12.4494 7.64799 12.4151 7.63019C12.3748 7.61054 12.3403 7.58066 12.3151 7.54353C12.2922 7.50903 12.2806 7.46826 12.2818 7.42686C12.2835 7.38377 12.2949 7.34161 12.3151 7.30353C12.3352 7.26344 12.365 7.22905 12.4018 7.20353C12.437 7.17916 12.479 7.16635 12.5218 7.16686C12.5551 7.16686 12.5885 7.17686 12.6285 7.20019C12.6818 7.22353 12.7151 7.25686 12.7318 7.29353C12.7491 7.32993 12.7527 7.37138 12.7418 7.41019L12.6518 7.38353C12.6573 7.3612 12.655 7.33766 12.6451 7.31686C12.6351 7.29686 12.6185 7.28353 12.5918 7.27019C12.5763 7.26132 12.559 7.25585 12.5412 7.25412C12.5234 7.2524 12.5054 7.25447 12.4885 7.26019C12.4551 7.27019 12.4251 7.30019 12.4018 7.34686C12.3785 7.39353 12.3685 7.43686 12.3785 7.47353C12.3831 7.49092 12.3914 7.50709 12.4029 7.52091C12.4145 7.53473 12.4289 7.54586 12.4451 7.55353C12.4618 7.56353 12.4818 7.57019 12.5018 7.57019C12.5217 7.57321 12.5419 7.57321 12.5618 7.57019L12.5885 7.51686L12.4918 7.46686ZM9.48514 6.72353L9.5518 6.25686L9.6918 6.2802L9.72847 6.60686L9.85847 6.30686L9.99847 6.32686L9.9318 6.78686L9.8418 6.77353L9.89847 6.4102L9.7518 6.76019L9.6618 6.74686L9.62514 6.3702L9.5718 6.73686L9.48514 6.72353ZM9.01514 6.66686L9.05847 6.2002L9.4018 6.23353L9.39514 6.31353L9.14514 6.2902L9.13514 6.3902L9.36847 6.41353L9.35847 6.49353L9.12514 6.4702L9.11514 6.59686L9.37514 6.6202L9.36847 6.70019L9.01514 6.66686Z" fill="#309E3A"/>
<path d="M7.45831 6.37672C7.45831 6.32672 7.46831 6.29005 7.48165 6.25672C7.49333 6.23301 7.50913 6.21157 7.52831 6.19339C7.54541 6.17614 7.56582 6.16254 7.58831 6.15339C7.62165 6.14339 7.65498 6.13672 7.68831 6.13672C7.75831 6.13672 7.81165 6.16339 7.85498 6.20339C7.87561 6.22887 7.89095 6.2582 7.9001 6.28968C7.90926 6.32116 7.91205 6.35415 7.90831 6.38672C7.90831 6.46005 7.88498 6.52005 7.84165 6.56338C7.81938 6.58397 7.79304 6.59965 7.76433 6.60941C7.73562 6.61917 7.70518 6.6228 7.67498 6.62005C7.64519 6.62035 7.61564 6.6146 7.58814 6.60314C7.56063 6.59168 7.53574 6.57475 7.51498 6.55339C7.4735 6.50429 7.45313 6.44078 7.45831 6.37672Z" fill="#309E3A"/>
<path d="M7.55493 6.37686C7.55493 6.42686 7.56493 6.46686 7.58827 6.49686C7.6116 6.52352 7.6416 6.54019 7.6816 6.54019C7.6989 6.5414 7.71626 6.53874 7.73241 6.5324C7.74855 6.52605 7.76308 6.51619 7.77493 6.50352C7.79827 6.47686 7.80827 6.43686 7.8116 6.38019C7.8116 6.32686 7.80493 6.28686 7.77827 6.26019C7.76741 6.24676 7.7537 6.2359 7.73814 6.22841C7.72257 6.22091 7.70554 6.21697 7.68827 6.21686C7.67073 6.2163 7.65329 6.21959 7.63716 6.2265C7.62103 6.23341 7.60662 6.24377 7.59493 6.25686C7.56827 6.28352 7.55826 6.32352 7.55493 6.37686Z" fill="#F7FFFF"/>
<path d="M8.0083 6.61706L8.01497 6.15039H8.21497C8.26497 6.15039 8.2983 6.15706 8.32163 6.16706C8.34497 6.17372 8.36163 6.19039 8.37497 6.21039C8.3883 6.23039 8.39497 6.25706 8.39497 6.28706C8.39523 6.31912 8.38332 6.3501 8.36163 6.37372C8.33699 6.39681 8.30528 6.4109 8.27163 6.41372L8.32163 6.45372C8.33497 6.46706 8.35163 6.49372 8.37163 6.53039L8.4283 6.62372H8.31497L8.2483 6.51706L8.20163 6.45039C8.19355 6.44122 8.18321 6.43432 8.17163 6.43039C8.15647 6.42597 8.14076 6.42372 8.12497 6.42372H8.10497V6.61706H8.0083Z" fill="#309E3A"/>
<path d="M8.1084 6.35047H8.17507C8.22173 6.35047 8.25173 6.35047 8.26173 6.3438C8.27173 6.3438 8.28173 6.3338 8.2884 6.32714C8.29507 6.32047 8.2984 6.3038 8.2984 6.2938C8.2984 6.2738 8.29507 6.26047 8.28507 6.2538C8.2784 6.2438 8.26507 6.23714 8.25173 6.2338H8.18507L8.1084 6.23047V6.34714V6.35047Z" fill="white"/>
<path d="M8.54164 6.17383L8.71498 6.18383C8.75164 6.18383 8.78164 6.18716 8.80164 6.19383C8.82759 6.20324 8.85058 6.21934 8.86831 6.24049C8.88751 6.2638 8.90118 6.29115 8.90831 6.32049C8.91831 6.35049 8.92164 6.38716 8.91831 6.43049C8.91828 6.46452 8.91265 6.4983 8.90164 6.53049C8.88831 6.56383 8.86831 6.59049 8.84497 6.61049C8.82555 6.6265 8.80276 6.63789 8.77831 6.64383C8.75831 6.65049 8.72831 6.65049 8.69498 6.65049L8.51831 6.64049L8.54164 6.17383Z" fill="#309E3A"/>
<path d="M8.63166 6.25684L8.61499 6.56684H8.74165C8.75832 6.56684 8.77165 6.56017 8.78165 6.55017C8.79165 6.54017 8.80165 6.52684 8.80832 6.50684C8.81499 6.48684 8.82165 6.45684 8.82165 6.42017L8.81832 6.33684C8.81356 6.31926 8.80438 6.30319 8.79165 6.29017C8.78058 6.27904 8.76679 6.27099 8.75165 6.26684C8.72645 6.26122 8.70079 6.25788 8.67499 6.25684H8.63166Z" fill="white"/>
<path d="M10.8284 7.00607L10.9384 6.55273L11.085 6.58607L11.1917 6.6194C11.215 6.63273 11.235 6.65273 11.245 6.68273C11.2584 6.7094 11.2584 6.7394 11.2517 6.77607C11.245 6.80273 11.235 6.82607 11.2184 6.84273C11.2061 6.85737 11.1908 6.86914 11.1736 6.8772C11.1563 6.88527 11.1374 6.88943 11.1184 6.8894C11.095 6.8894 11.0617 6.88273 11.0184 6.87273L10.9617 6.85607L10.9217 7.0294L10.8284 7.00607Z" fill="#309E3A"/>
<path d="M11.0084 6.65234L10.9817 6.77901L11.0317 6.79234C11.065 6.79901 11.0917 6.80568 11.105 6.80234C11.118 6.80054 11.1301 6.79477 11.1396 6.78582C11.1492 6.77686 11.1557 6.76517 11.1584 6.75234C11.1584 6.73568 11.1584 6.72234 11.1517 6.70901C11.1444 6.69546 11.1326 6.68486 11.1184 6.67901L11.055 6.66234L11.0117 6.65234H11.0084Z" fill="white"/>
<path d="M11.2617 7.13727L11.4184 6.69727L11.6017 6.76393C11.6517 6.7806 11.6817 6.79727 11.7017 6.8106C11.7184 6.82727 11.7317 6.84393 11.7351 6.8706C11.7384 6.89727 11.7417 6.9206 11.7351 6.94727C11.7217 6.9806 11.7017 7.00393 11.6751 7.0206C11.6484 7.03393 11.6151 7.03727 11.5751 7.0306C11.5884 7.04727 11.6017 7.06393 11.6084 7.08393L11.6351 7.17393L11.6551 7.27727L11.5517 7.2406L11.5184 7.1206C11.5123 7.09346 11.5045 7.06674 11.4951 7.0406C11.4906 7.03023 11.4838 7.02108 11.4751 7.01393C11.4684 7.00393 11.4551 6.99727 11.4317 6.9906L11.4151 6.98393L11.3484 7.1706L11.2617 7.13727Z" fill="#309E3A"/>
<path d="M11.4416 6.91371L11.5049 6.93704C11.5482 6.95371 11.5749 6.96038 11.5882 6.96038C11.5982 6.96038 11.6082 6.96038 11.6182 6.95038C11.6282 6.94371 11.6349 6.93371 11.6382 6.92038C11.6449 6.90704 11.6449 6.89371 11.6382 6.88038C11.6333 6.86746 11.6238 6.85679 11.6116 6.85038L11.5449 6.82704L11.4782 6.80371L11.4382 6.91371H11.4416Z" fill="white"/>
<path d="M11.8084 7.12043C11.8199 7.0814 11.8392 7.04511 11.8651 7.01376C11.8819 6.99365 11.9023 6.97672 11.9251 6.96376C11.9457 6.95209 11.9683 6.94419 11.9917 6.94043C12.0251 6.94043 12.0584 6.94043 12.0951 6.95376C12.1249 6.96114 12.1528 6.97475 12.1769 6.99372C12.201 7.01268 12.2209 7.03656 12.2351 7.06376C12.2617 7.1171 12.2617 7.18043 12.2417 7.25376C12.2252 7.31677 12.1845 7.37069 12.1284 7.40377C12.0784 7.43377 12.0184 7.4371 11.9551 7.4171C11.9254 7.40953 11.8976 7.39584 11.8735 7.37689C11.8493 7.35795 11.8295 7.33418 11.8151 7.3071C11.8017 7.27796 11.7943 7.24646 11.7931 7.21443C11.792 7.1824 11.7972 7.15045 11.8084 7.12043Z" fill="#309E3A"/>
<path d="M11.9017 7.14667C11.8883 7.19667 11.885 7.24001 11.9017 7.27334C11.9183 7.30667 11.9417 7.32667 11.9783 7.34001C12.0117 7.35001 12.045 7.34667 12.0783 7.32667C12.1117 7.31001 12.1317 7.27334 12.1483 7.22001C12.165 7.17001 12.165 7.13001 12.1483 7.09667C12.1417 7.08086 12.1318 7.06669 12.1191 7.05517C12.1064 7.04364 12.0914 7.03505 12.075 7.03001C12.0586 7.02434 12.0412 7.02231 12.0239 7.02403C12.0066 7.02576 11.99 7.03121 11.975 7.04001C11.9417 7.06001 11.9183 7.09334 11.9017 7.14667Z" fill="white"/>
<path d="M12.7183 7.76978L12.9316 7.35645L13.1083 7.44645C13.1416 7.46242 13.172 7.48383 13.1983 7.50978C13.2149 7.52645 13.2249 7.54645 13.2249 7.57311C13.2249 7.59978 13.2249 7.62311 13.2116 7.64645C13.1988 7.67642 13.1749 7.7003 13.1449 7.71311C13.1116 7.71978 13.0783 7.71978 13.0416 7.70645C13.0549 7.72645 13.0616 7.74644 13.0683 7.76311C13.0749 7.78311 13.0783 7.81311 13.0816 7.85644L13.0883 7.96311L12.9883 7.91311L12.9749 7.78978C12.9733 7.76182 12.97 7.73399 12.9649 7.70645C12.9627 7.69398 12.9569 7.68241 12.9483 7.67311L12.9083 7.64978L12.8916 7.63978L12.8016 7.81311L12.7183 7.76978Z" fill="#309E3A"/>
<path d="M12.925 7.57346L12.9884 7.6068C13.0284 7.6268 13.055 7.64013 13.065 7.64013C13.075 7.64013 13.0884 7.64013 13.0984 7.63346C13.1084 7.63013 13.115 7.62013 13.1217 7.6068C13.1284 7.59346 13.1317 7.58013 13.1284 7.5668C13.1243 7.55353 13.1161 7.54187 13.105 7.53346C13.0855 7.52149 13.0655 7.51037 13.045 7.50013L12.9784 7.4668L12.925 7.57346Z" fill="white"/>
<path d="M14.445 8.6233C14.4666 8.58903 14.4949 8.55953 14.5283 8.53663C14.5508 8.52228 14.5756 8.51211 14.6017 8.50663C14.6259 8.50169 14.6508 8.50169 14.675 8.50663C14.7083 8.5133 14.7383 8.52663 14.7683 8.54663C14.7943 8.56279 14.8166 8.58418 14.8338 8.60943C14.851 8.63469 14.8628 8.66325 14.8683 8.6933C14.8783 8.74997 14.8617 8.8133 14.8217 8.87663C14.7882 8.93172 14.7343 8.97128 14.6717 8.98663C14.6418 8.99308 14.611 8.99315 14.5811 8.98683C14.5512 8.98051 14.523 8.96795 14.4983 8.94997C14.4724 8.93381 14.4501 8.91242 14.4329 8.88717C14.4157 8.86192 14.4039 8.83335 14.3983 8.8033C14.3883 8.7433 14.405 8.6833 14.445 8.6233Z" fill="#309E3A"/>
<path d="M14.5284 8.67614C14.495 8.71947 14.485 8.75947 14.4917 8.79613C14.4942 8.81302 14.5002 8.82918 14.5094 8.84355C14.5186 8.85792 14.5307 8.87017 14.545 8.87947C14.5784 8.9028 14.6117 8.90947 14.645 8.89947C14.6784 8.88947 14.7117 8.86613 14.7417 8.81947C14.7717 8.7728 14.785 8.7328 14.7783 8.69947C14.775 8.66614 14.755 8.63614 14.725 8.6128C14.695 8.58947 14.6584 8.58614 14.625 8.59614C14.5917 8.6028 14.5584 8.62947 14.525 8.67614H14.5284Z" fill="white"/>
<path d="M10.3015 6.8169L10.3782 6.49023L10.6182 6.5469L10.6082 6.60023L10.4315 6.56023L10.4148 6.63357L10.5782 6.67023L10.5648 6.7269L10.4015 6.6869L10.3815 6.7769L10.5648 6.82023L10.5515 6.87357L10.3015 6.8169Z" fill="#309E3A"/>
</g>
<defs>
<clipPath id="clip0">
<rect x="0.241699" width="21.3333" height="16" rx="8" fill="white"/>
</clipPath>
</defs>
</svg>
