<svg width="22" height="16" viewBox="0 0 22 16" fill="none" xmlns="http://www.w3.org/2000/svg">
<g clip-path="url(#clip0)">
<path fill-rule="evenodd" clip-rule="evenodd" d="M0 0H30.3946V1.23103H0V0ZM0 2.46207H30.3946V3.6931H0V2.46207ZM0 4.92101H30.3946V6.15516H0V4.92101ZM0 7.38307H30.3946V8.61411H0V7.38307ZM0 9.84514H30.3946V11.0762H0V9.84514ZM0 12.3041H30.3946V13.5351H0V12.3041ZM0 14.7661H30.3946V15.9972H0V14.7661Z" fill="#BD3D44"/>
<path fill-rule="evenodd" clip-rule="evenodd" d="M0 1.23145H30.3946V2.46248H0V1.23145ZM0 3.69351H30.3946V4.92142H0V3.69351ZM0 6.15245H30.3946V7.38349H0V6.15245ZM0 8.61452H30.3946V9.84555H0V8.61452ZM0 11.0766H30.3946V12.3076H0V11.0766ZM0 13.5355H30.3946V14.7666H0V13.5355Z" fill="white"/>
<path fill-rule="evenodd" clip-rule="evenodd" d="M0 0H12.1572V8.61411H0V0Z" fill="#192F5D"/>
<path fill-rule="evenodd" clip-rule="evenodd" d="M1.01225 0.368164L1.12473 0.708729H1.48091L1.19346 0.918067L1.30282 1.26176L1.01225 1.04929L0.724797 1.25863L0.834153 0.918067L0.543579 0.708729H0.906015L1.01225 0.368164ZM3.04001 0.368164L3.14937 0.708729H3.50868L3.21811 0.918067L3.32746 1.26176L3.04001 1.04929L2.74944 1.25863L2.85879 0.918067L2.57135 0.708729H2.92753L3.04001 0.368164ZM5.06466 0.368164L5.17713 0.708729H5.5302L5.24275 0.918067L5.3521 1.26176L5.06153 1.04929L4.77408 1.25863L4.88344 0.918067L4.59286 0.708729H4.95217L5.06466 0.368164ZM7.09242 0.368164L7.20178 0.708729H7.56109L7.27052 0.918067L7.383 1.26176L7.09242 1.04929L6.80185 1.25863L6.91433 0.918067L6.62375 0.708729H6.97994L7.09242 0.368164ZM9.11706 0.368164L9.22954 0.708729H9.58573L9.29828 0.918067L9.40764 1.26176L9.11706 1.04929L8.82961 1.25863L8.93897 0.918067L8.65152 0.708729H9.00771L9.11706 0.368164ZM11.1448 0.368164L11.2542 0.708729H11.6135L11.3229 0.918067L11.4354 1.26176L11.1448 1.04929L10.8543 1.25863L10.9667 0.918067L10.6762 0.708729H11.0355L11.1448 0.368164ZM2.02769 1.23051L2.13705 1.57108H2.49636L2.20579 1.78041L2.31202 2.12098L2.03082 1.91164L1.74024 2.12098L1.84335 1.78041L1.56215 1.57108H1.91834L2.02769 1.23051ZM4.05233 1.23051L4.16481 1.57108H4.521L4.23043 1.78041L4.34291 2.12098L4.05233 1.91164L3.76176 2.12098L3.87424 1.78041L3.58367 1.57108H3.94298L4.05233 1.23051ZM6.0801 1.23051L6.18946 1.57108H6.54877L6.25819 1.78041L6.36755 2.12098L6.0801 1.91164L5.78953 2.12098L5.89888 1.78041L5.61143 1.57108H5.96762L6.0801 1.23051ZM8.10474 1.23051L8.21722 1.57108H8.57341L8.28284 1.78041L8.39532 2.12098L8.10474 1.91164L7.81729 2.12098L7.92665 1.78041L7.63608 1.57108H7.99851L8.10474 1.23051ZM10.1325 1.23051L10.2419 1.57108H10.6012L10.3106 1.78041L10.42 2.12098L10.1325 1.91164L9.84194 2.12098L9.95129 1.78041L9.66384 1.57108H10.02L10.1325 1.23051ZM1.01225 2.08974L1.12473 2.43655H1.48091L1.19346 2.64589L1.30282 2.98645L1.01225 2.77399L0.724797 2.98645L0.834153 2.64276L0.543579 2.43342H0.906015L1.01225 2.08974ZM3.04001 2.08974L3.14937 2.43342H3.50868L3.21811 2.64276L3.32746 2.98333L3.04001 2.77086L2.74944 2.98333L2.85879 2.63964L2.57135 2.4303H2.92753L3.04001 2.08974ZM5.06466 2.08974L5.17713 2.43342H5.5302L5.24275 2.64276L5.3521 2.98333L5.06153 2.77086L4.77408 2.98333L4.88344 2.63964L4.59286 2.4303H4.95217L5.06466 2.08974ZM7.09242 2.08974L7.20178 2.43342H7.56109L7.27052 2.64276L7.383 2.98333L7.09242 2.77086L6.80185 2.98333L6.91433 2.63964L6.62375 2.4303H6.97994L7.09242 2.08974ZM9.11706 2.08974L9.22954 2.43342H9.58573L9.29828 2.64276L9.40764 2.98333L9.11706 2.77086L8.82961 2.98333L8.93897 2.63964L8.65152 2.4303H9.00771L9.11706 2.08974ZM11.1448 2.08974L11.2542 2.43342H11.6135L11.3229 2.64276L11.4354 2.98333L11.1448 2.77086L10.8543 2.98333L10.9667 2.63964L10.6762 2.4303H11.0355L11.1448 2.08974ZM2.02769 2.95208L2.13705 3.29265H2.49636L2.20579 3.50199L2.31514 3.84567L2.02769 3.63321L1.73712 3.84255L1.84647 3.50199L1.55902 3.29265H1.91521L2.02769 2.95208ZM4.05233 2.95208L4.16481 3.29265H4.521L4.23043 3.50199L4.34291 3.84567L4.05233 3.63321L3.76176 3.84255L3.87424 3.50199L3.58367 3.29265H3.94298L4.05233 2.95208ZM6.0801 2.95208L6.18946 3.29265H6.54877L6.25819 3.50199L6.36755 3.84567L6.0801 3.63321L5.78953 3.84255L5.89888 3.50199L5.61143 3.29265H5.96762L6.0801 2.95208ZM8.10474 2.95208L8.21722 3.29265H8.57341L8.28596 3.50199L8.39532 3.84567L8.10474 3.63321L7.81729 3.84255L7.92665 3.50199L7.63608 3.29265H7.99851L8.10474 2.95208ZM10.1325 2.95208L10.2419 3.29265H10.6012L10.3106 3.50199L10.42 3.84567L10.1325 3.63321L9.84194 3.84255L9.95129 3.50199L9.66384 3.29265H10.02L10.1325 2.95208ZM1.01225 3.81443L1.12473 4.15499H1.48091L1.19346 4.36433L1.30282 4.70802L1.01225 4.49556L0.724797 4.7049L0.834153 4.36433L0.543579 4.15499H0.906015L1.01225 3.81443ZM3.04001 3.81443L3.14937 4.15499H3.50868L3.21811 4.36433L3.32746 4.7049L3.04001 4.49556L2.74944 4.7049L2.85879 4.36433L2.57135 4.15499H2.92753L3.04001 3.81443ZM5.06466 3.81443L5.17713 4.15499H5.5302L5.24275 4.36433L5.3521 4.70802L5.06153 4.49556L4.77408 4.7049L4.88344 4.36433L4.59286 4.15499H4.95217L5.06466 3.81443ZM7.09242 3.81443L7.20178 4.15499H7.56109L7.27052 4.36433L7.383 4.70802L7.09242 4.49556L6.80185 4.7049L6.91433 4.36433L6.62375 4.15499H6.97994L7.09242 3.81443ZM9.11706 3.81443L9.22954 4.15499H9.58573L9.29828 4.36433L9.40764 4.70802L9.11706 4.49556L8.82961 4.7049L8.93897 4.36433L8.65152 4.15499H9.00771L9.11706 3.81443ZM11.1448 3.81443L11.2542 4.15499H11.6135L11.3229 4.36433L11.4354 4.70802L11.1448 4.49556L10.8543 4.7049L10.9667 4.36433L10.6762 4.15499H11.0355L11.1448 3.81443ZM2.02769 4.67678L2.13705 5.01734H2.49636L2.20579 5.22668L2.31514 5.56725L2.02769 5.35478L1.73712 5.56725L1.84647 5.22356L1.55902 5.01422H1.91521L2.02769 4.67678ZM4.05233 4.67678L4.16481 5.01734H4.521L4.23043 5.22668L4.34291 5.56725L4.05233 5.35478L3.76176 5.56725L3.87424 5.22356L3.58367 5.01422H3.94298L4.05233 4.67678ZM6.0801 4.67678L6.18946 5.01734H6.54877L6.25819 5.22668L6.36755 5.56725L6.0801 5.35478L5.78953 5.56725L5.89888 5.22356L5.61143 5.01422H5.96762L6.0801 4.67678ZM8.10474 4.67678L8.21722 5.01734H8.57341L8.28596 5.22668L8.39532 5.56725L8.10474 5.35478L7.81729 5.56725L7.92665 5.22356L7.63608 5.01422H7.99851L8.10474 4.67678ZM10.1325 4.67678L10.2419 5.01734H10.6012L10.3106 5.22668L10.42 5.56725L10.1325 5.35478L9.84194 5.56725L9.95129 5.22356L9.66384 5.01422H10.02L10.1325 4.67678ZM1.01225 5.536L1.12473 5.87969H1.48091L1.19346 6.08903L1.30282 6.42647L1.01225 6.21713L0.724797 6.42647L0.834153 6.0859L0.543579 5.87657H0.906015L1.01225 5.536ZM3.04001 5.536L3.14937 5.87969H3.50868L3.21811 6.08903L3.33059 6.42647L3.04001 6.21713L2.74944 6.42647L2.86192 6.0859L2.57135 5.87657H2.92753L3.04001 5.536ZM5.06466 5.536L5.17713 5.87969H5.5302L5.24275 6.08903L5.3521 6.42647L5.06153 6.21713L4.77408 6.42647L4.88344 6.0859L4.59286 5.87657H4.95217L5.06466 5.536ZM7.09242 5.536L7.20178 5.87969H7.56109L7.27052 6.08903L7.383 6.42647L7.09242 6.21713L6.80185 6.42647L6.91433 6.0859L6.62375 5.87657H6.97994L7.09242 5.536ZM9.11706 5.536L9.22954 5.87969H9.58573L9.29828 6.08903L9.40764 6.42647L9.11706 6.21713L8.82961 6.42647L8.93897 6.0859L8.65152 5.87657H9.00771L9.11706 5.536ZM11.1448 5.536L11.2542 5.87969H11.6135L11.3229 6.08903L11.4354 6.42647L11.1448 6.21713L10.8543 6.42647L10.9667 6.0859L10.6762 5.87657H11.0355L11.1448 5.536ZM2.02769 6.39835L2.13705 6.73891H2.49636L2.20579 6.94825L2.31514 7.29194L2.02769 7.07948L1.73712 7.28882L1.84647 6.94825L1.55902 6.73891H1.91521L2.02769 6.39835ZM4.05233 6.39835L4.16481 6.73891H4.521L4.23043 6.94825L4.34291 7.29194L4.05233 7.07948L3.76176 7.28882L3.87424 6.94825L3.58367 6.73891H3.94298L4.05233 6.39835ZM6.0801 6.39835L6.18946 6.73891H6.54877L6.25819 6.94825L6.36755 7.29194L6.0801 7.07948L5.78953 7.28882L5.89888 6.94825L5.61143 6.73891H5.96762L6.0801 6.39835ZM8.10474 6.39835L8.21722 6.73891H8.57341L8.28596 6.94825L8.39532 7.29194L8.10474 7.07948L7.81729 7.28882L7.92665 6.94825L7.63608 6.73891H7.99851L8.10474 6.39835ZM10.1325 6.39835L10.2419 6.73891H10.6012L10.3106 6.94825L10.42 7.29194L10.1325 7.07948L9.84194 7.28882L9.95129 6.94825L9.66384 6.73891H10.02L10.1325 6.39835ZM1.01225 7.2607L1.12473 7.60126H1.48091L1.19346 7.8106L1.30282 8.15116L1.01225 7.94183L0.724797 8.15116L0.834153 7.80747L0.543579 7.59814H0.906015L1.01225 7.2607ZM3.04001 7.2607L3.14937 7.60126H3.50868L3.21811 7.8106L3.33059 8.15116L3.04001 7.94183L2.74944 8.15116L2.86192 7.80747L2.57135 7.59814H2.92753L3.04001 7.2607ZM5.06466 7.2607L5.17713 7.60126H5.5302L5.249 7.8106L5.35835 8.15116L5.06778 7.94183L4.78033 8.15116L4.88969 7.80747L4.59911 7.59814H4.95842L5.06466 7.2607ZM7.09242 7.2607L7.20178 7.60126H7.56109L7.27052 7.8106L7.383 8.15116L7.09242 7.94183L6.80185 8.15116L6.91433 7.80747L6.62375 7.59814H6.97994L7.09242 7.2607ZM9.11706 7.2607L9.22954 7.60126H9.58573L9.29828 7.8106L9.40764 8.15116L9.11706 7.94183L8.82961 8.15116L8.93897 7.80747L8.65152 7.59814H9.00771L9.11706 7.2607ZM11.1448 7.2607L11.2542 7.60126H11.6135L11.3229 7.8106L11.4354 8.15116L11.1448 7.94183L10.8543 8.15116L10.9667 7.80747L10.6762 7.59814H11.0355L11.1448 7.2607Z" fill="white"/>
</g>
<defs>
<clipPath id="clip0">
<rect width="21.3296" height="15.9972" rx="7.99859" fill="white"/>
</clipPath>
</defs>
</svg>
