<?xml version="1.0" encoding="UTF-8" standalone="no"?>
<svg
   xmlns:dc="http://purl.org/dc/elements/1.1/"
   xmlns:cc="http://creativecommons.org/ns#"
   xmlns:rdf="http://www.w3.org/1999/02/22-rdf-syntax-ns#"
   xmlns:svg="http://www.w3.org/2000/svg"
   xmlns="http://www.w3.org/2000/svg"
   xmlns:sodipodi="http://sodipodi.sourceforge.net/DTD/sodipodi-0.dtd"
   xmlns:inkscape="http://www.inkscape.org/namespaces/inkscape"
   viewBox="0 0 120 34"
   height="34"
   width="120"
   xml:space="preserve"
   id="svg2"
   version="1.1"
   sodipodi:docname="gplay.svg"
   inkscape:version="0.92.2 5c3e80d, 2017-08-06"><sodipodi:namedview
     pagecolor="#ffffff"
     bordercolor="#666666"
     borderopacity="1"
     objecttolerance="10"
     gridtolerance="10"
     guidetolerance="10"
     inkscape:pageopacity="0"
     inkscape:pageshadow="2"
     inkscape:window-width="1440"
     inkscape:window-height="855"
     id="namedview122"
     showgrid="false"
     inkscape:zoom="0.41950474"
     inkscape:cx="408.59624"
     inkscape:cy="73.343807"
     inkscape:window-x="0"
     inkscape:window-y="1"
     inkscape:window-maximized="1"
     inkscape:current-layer="svg2" /><metadata
     id="metadata8"><rdf:RDF><cc:Work
         rdf:about=""><dc:format>image/svg+xml</dc:format><dc:type
           rdf:resource="http://purl.org/dc/dcmitype/StillImage" /><dc:title></dc:title></cc:Work></rdf:RDF></metadata><defs
     id="defs6"><clipPath
       id="clipPath18"
       clipPathUnits="userSpaceOnUse"><path
         id="path16"
         d="M 0,291.139 H 975.948 V 0 H 0 Z"
         inkscape:connector-curvature="0" /></clipPath><clipPath
       id="clipPath56"
       clipPathUnits="userSpaceOnUse"><path
         id="path54"
         d="m 167.582,124.244 22.53,-22.544 c 17.141,9.383 30.234,16.549 31.424,17.202 v 0 c 3.552,1.945 7.274,6.906 0,10.873 v 0 c -2.339,1.275 -15.077,8.222 -31.444,17.152 v 0 z"
         inkscape:connector-curvature="0" /></clipPath><linearGradient
       id="linearGradient66"
       spreadMethod="pad"
       gradientTransform="matrix(-23.911669,46.929279,46.929279,23.911669,208.21094,102.17773)"
       gradientUnits="userSpaceOnUse"
       y2="0"
       x2="1"
       y1="0"
       x1="0"><stop
         id="stop62"
         offset="0"
         style="stop-opacity:1;stop-color:#facd8a" /><stop
         id="stop64"
         offset="1"
         style="stop-opacity:1;stop-color:#f5906c" /></linearGradient><clipPath
       id="clipPath76"
       clipPathUnits="userSpaceOnUse"><path
         id="path74"
         d="m 95.585,51.697 c 1.625,-0.204 3.581,0.226 5.83,1.456 v 0 c 4.657,2.549 54.667,29.923 88.697,48.55 v 0 l -22.53,22.541 z"
         inkscape:connector-curvature="0" /></clipPath><linearGradient
       id="linearGradient86"
       spreadMethod="pad"
       gradientTransform="matrix(-93.398644,-96.71714,-96.71714,93.398644,189.74365,125.26172)"
       gradientUnits="userSpaceOnUse"
       y2="0"
       x2="1"
       y1="0"
       x1="0"><stop
         id="stop82"
         offset="0"
         style="stop-opacity:1;stop-color:#e62d38" /><stop
         id="stop84"
         offset="1"
         style="stop-opacity:1;stop-color:#78459a" /></linearGradient><clipPath
       id="clipPath96"
       clipPathUnits="userSpaceOnUse"><path
         id="path94"
         d="m 95.169,196.14 72.413,-71.896 22.51,22.683 c 0,0 -83.668,45.646 -88.677,48.378 v 0 c -1.312,0.717 -2.874,1.036 -4.324,1.036 v 0 c -0.677,0 -1.33,-0.069 -1.922,-0.201"
         inkscape:connector-curvature="0" /></clipPath><linearGradient
       id="linearGradient106"
       spreadMethod="pad"
       gradientTransform="matrix(-88.414681,94.813103,94.813103,88.414681,187.25928,123.67383)"
       gradientUnits="userSpaceOnUse"
       y2="0"
       x2="1"
       y1="0"
       x1="0"><stop
         id="stop102"
         offset="0"
         style="stop-opacity:1;stop-color:#e5eba5" /><stop
         id="stop104"
         offset="1"
         style="stop-opacity:1;stop-color:#38bbba" /></linearGradient><linearGradient
       id="linearGradient126"
       spreadMethod="pad"
       gradientTransform="matrix(-1.17e-5,268.40674,268.40674,1.17e-5,128.68848,-10.34668)"
       gradientUnits="userSpaceOnUse"
       y2="0"
       x2="1"
       y1="0"
       x1="0"><stop
         id="stop122"
         offset="0"
         style="stop-opacity:1;stop-color:#8dd1cd" /><stop
         id="stop124"
         offset="1"
         style="stop-opacity:1;stop-color:#006f8c" /></linearGradient><clipPath
       id="clipPath136"
       clipPathUnits="userSpaceOnUse"><path
         id="path134"
         d="M 0,291.139 H 975.948 V 0 H 0 Z"
         inkscape:connector-curvature="0" /></clipPath><linearGradient
       id="linearGradient200"
       spreadMethod="pad"
       gradientTransform="matrix(-23.911669,46.929279,46.929279,23.911669,208.21094,102.17773)"
       gradientUnits="userSpaceOnUse"
       y2="0"
       x2="1"
       y1="0"
       x1="0"><stop
         id="stop196"
         offset="0"
         style="stop-opacity:1;stop-color:#facd8a" /><stop
         id="stop198"
         offset="1"
         style="stop-opacity:1;stop-color:#f5906c" /></linearGradient><linearGradient
       id="linearGradient220"
       spreadMethod="pad"
       gradientTransform="matrix(-93.398644,-96.71714,-96.71714,93.398644,189.74365,125.26172)"
       gradientUnits="userSpaceOnUse"
       y2="0"
       x2="1"
       y1="0"
       x1="0"><stop
         id="stop216"
         offset="0"
         style="stop-opacity:1;stop-color:#e62d38" /><stop
         id="stop218"
         offset="1"
         style="stop-opacity:1;stop-color:#78459a" /></linearGradient><linearGradient
       id="linearGradient240"
       spreadMethod="pad"
       gradientTransform="matrix(-88.414681,94.813103,94.813103,88.414681,187.25928,123.67383)"
       gradientUnits="userSpaceOnUse"
       y2="0"
       x2="1"
       y1="0"
       x1="0"><stop
         id="stop236"
         offset="0"
         style="stop-opacity:1;stop-color:#e5eba5" /><stop
         id="stop238"
         offset="1"
         style="stop-opacity:1;stop-color:#38bbba" /></linearGradient><linearGradient
       id="linearGradient260"
       spreadMethod="pad"
       gradientTransform="matrix(-1.17e-5,268.40674,268.40674,1.17e-5,128.68848,-10.34668)"
       gradientUnits="userSpaceOnUse"
       y2="0"
       x2="1"
       y1="0"
       x1="0"><stop
         id="stop256"
         offset="0"
         style="stop-opacity:1;stop-color:#8dd1cd" /><stop
         id="stop258"
         offset="1"
         style="stop-opacity:1;stop-color:#006f8c" /></linearGradient></defs><g
     id="g132"
     transform="matrix(0.0924142,0,0,0.0924142,-0.12763699,-0.50850417)"><g
       transform="matrix(1.6160801,0,0,-1.6160801,395.88211,218.90185)"
       id="g28"><path
         id="path30"
         style="fill:#ffffff;fill-opacity:1;fill-rule:evenodd;stroke:none"
         d="m 0,0 h -44.962 v -13.342 h 31.889 c -1.576,-18.709 -17.141,-26.689 -31.835,-26.689 -18.798,10e-4 -35.201,14.791 -35.201,35.521 0,20.195 15.637,35.747 35.242,35.747 15.127,0 24.04,-9.643 24.04,-9.643 l 9.343,9.675 c 0,0 -11.992,13.349 -33.86,13.349 -27.846,0 -49.39,-23.503 -49.39,-48.889 0,-24.875 20.265,-49.133 50.1,-49.133 26.24,0.002 45.448,17.976 45.448,44.558 C 0.814,-3.238 0,0.004 0,0.004 Z"
         inkscape:connector-curvature="0" /></g><g
       transform="matrix(1.6160801,0,0,-1.6160801,457.65144,203.28695)"
       id="g32"><path
         id="path34"
         style="fill:#ffffff;fill-opacity:1;fill-rule:evenodd;stroke:none"
         d="m 0,0 c -18.451,0 -31.672,-14.424 -31.672,-31.246 0,-17.07 12.824,-31.762 31.887,-31.762 17.259,0 31.396,13.19 31.396,31.396 C 31.611,-10.746 15.165,0 0,0 m 0.183,-12.375 c 9.073,0 17.67,-7.334 17.67,-19.154 0,-11.569 -8.562,-19.113 -17.712,-19.113 -10.055,0 -17.987,8.052 -17.987,19.204 0,10.913 7.835,19.063 18.029,19.063"
         inkscape:connector-curvature="0" /></g><g
       transform="matrix(1.6160801,0,0,-1.6160801,570.17505,203.28695)"
       id="g36"><path
         id="path38"
         style="fill:#ffffff;fill-opacity:1;fill-rule:evenodd;stroke:none"
         d="m 0,0 c -18.449,0 -31.671,-14.424 -31.671,-31.246 0,-17.07 12.824,-31.762 31.889,-31.762 17.257,0 31.394,13.19 31.394,31.396 C 31.612,-10.746 15.167,0 0,0 m 0.184,-12.375 c 9.072,0 17.67,-7.334 17.67,-19.154 0,-11.569 -8.561,-19.113 -17.713,-19.113 -10.054,0 -17.985,8.052 -17.985,19.204 0,10.913 7.833,19.063 18.028,19.063"
         inkscape:connector-curvature="0" /></g><g
       transform="matrix(1.6160801,0,0,-1.6160801,680.3935,203.34076)"
       id="g40"><path
         id="path42"
         style="fill:#ffffff;fill-opacity:1;fill-rule:evenodd;stroke:none"
         d="m 0,0 c -16.934,0 -30.246,-14.832 -30.246,-31.479 0,-18.962 15.433,-31.538 29.953,-31.538 8.981,0 13.754,3.566 17.279,7.656 v -6.212 c 0,-10.87 -6.599,-17.379 -16.56,-17.379 -9.623,0 -14.451,7.156 -16.128,11.217 l -12.109,-5.062 c 4.297,-9.084 12.944,-18.556 28.336,-18.556 16.838,0 29.67,10.607 29.67,32.849 V -1.895 H 16.987 V -7.231 C 12.926,-2.854 7.371,0 0,0 m 1.226,-12.35 c 8.302,0 16.828,-7.089 16.828,-19.197 0,-12.305 -8.508,-19.086 -17.012,-19.086 -9.026,0 -17.428,7.33 -17.428,18.971 0,12.094 8.725,19.312 17.612,19.312"
         inkscape:connector-curvature="0" /></g><g
       transform="matrix(1.6160801,0,0,-1.6160801,828.5916,203.21762)"
       id="g44"><path
         id="path46"
         style="fill:#ffffff;fill-opacity:1;fill-rule:evenodd;stroke:none"
         d="m 0,0 c -15.974,0 -29.386,-12.71 -29.386,-31.464 0,-19.843 14.949,-31.612 30.92,-31.612 13.329,0 21.511,7.293 26.393,13.826 l -10.89,7.246 c -2.827,-4.385 -7.552,-8.672 -15.435,-8.672 -8.857,0 -12.93,4.85 -15.454,9.548 l 42.245,17.528 -2.194,5.137 C 22.118,-8.404 12.6,-0.002 0.001,-0.002 Z m 0.551,-12.117 c 5.757,0 9.898,-3.061 11.658,-6.731 l -28.211,-11.791 c -1.217,9.129 7.433,18.522 16.552,18.522 z"
         inkscape:connector-curvature="0" /></g><path
       id="path48"
       style="fill:#ffffff;fill-opacity:1;fill-rule:evenodd;stroke:none;stroke-width:1.61608005"
       d="m 746.31227,302.1303 h 22.42311 V 152.0611 h -22.42311 z"
       inkscape:connector-curvature="0" /><g
       transform="matrix(1.5696961,0,0,-1.5696961,-139.57097,426.67171)"
       id="g58"><g
         id="g60"><path
           id="path68"
           style="fill:url(#linearGradient66);stroke:none"
           d="m 167.582,124.244 22.53,-22.544 c 17.141,9.383 30.234,16.549 31.424,17.202 v 0 c 3.552,1.945 7.274,6.906 0,10.873 v 0 c -2.339,1.275 -15.077,8.222 -31.444,17.152 v 0 z"
           inkscape:connector-curvature="0" /></g></g><g
       transform="matrix(1.5696961,0,0,-1.5696961,-139.57097,426.67171)"
       id="g78"><g
         id="g80"><path
           id="path88"
           style="fill:url(#linearGradient86);stroke:none"
           d="m 95.585,51.697 c 1.625,-0.204 3.581,0.226 5.83,1.456 v 0 c 4.657,2.549 54.667,29.923 88.697,48.55 v 0 l -22.53,22.541 z"
           inkscape:connector-curvature="0" /></g></g><g
       transform="matrix(1.5696961,0,0,-1.5696961,-139.57097,426.67171)"
       id="g98"><g
         id="g100"><path
           id="path108"
           style="fill:url(#linearGradient106);stroke:none"
           d="m 95.169,196.14 72.413,-71.896 22.51,22.683 c 0,0 -83.668,45.646 -88.677,48.378 v 0 c -1.312,0.717 -2.874,1.036 -4.324,1.036 v 0 c -0.677,0 -1.33,-0.069 -1.922,-0.201"
           inkscape:connector-curvature="0" /></g></g><g
       transform="matrix(1.5696961,0,0,-1.5696961,-139.57097,426.67171)"
       id="g118"><g
         id="g120"><path
           id="path128"
           style="fill:url(#linearGradient126);stroke:none"
           d="m 89.796,187.696 c 0.043,-8.41 0.608,-120.485 0.643,-127.546 v 0 c 0.025,-4.876 1.961,-8.296 5.511,-8.619 v 0 l 71.632,72.713 -72.413,71.896 c -2.974,-0.679 -5.398,-3.266 -5.373,-8.444"
           inkscape:connector-curvature="0" /></g></g><path
       id="path138"
       style="fill:#ffffff;fill-opacity:1;fill-rule:evenodd;stroke:none;stroke-width:1.61608005"
       d="m 1046.9646,302.1303 h 22.4248 V 152.0611 h -22.4248 z"
       inkscape:connector-curvature="0" /><path
       id="path140"
       style="fill:#ffffff;fill-opacity:1;fill-rule:evenodd;stroke:none;stroke-width:1.61608005"
       d="m 928.05017,302.1303 h 22.42312 V 152.0611 h -22.42312 z"
       inkscape:connector-curvature="0" /><g
       transform="matrix(1.6160801,0,0,-1.6160801,950.47296,174.48566)"
       id="g142"><path
         id="path144"
         style="fill:#ffffff;fill-opacity:1;fill-rule:evenodd;stroke:none"
         d="m 0,0 v -31.412 h 19.689 c 8.612,0 15.707,7.095 15.707,15.706 C 35.396,-7.094 28.301,0 19.689,0 Z m -13.875,13.876 h 33.564 c 16.271,0 29.582,-13.311 29.582,-29.582 0,-16.27 -13.311,-29.582 -29.582,-29.582 h -33.564 z"
         inkscape:connector-curvature="0" /></g><g
       transform="matrix(1.6160801,0,0,-1.6160801,1234.952,350.97211)"
       id="g146"><path
         id="path148"
         style="fill:#ffffff;fill-opacity:1;fill-rule:evenodd;stroke:none"
         d="M 0,0 40.178,91.426 H 25.021 L -15.155,0 Z"
         inkscape:connector-curvature="0" /></g><g
       transform="matrix(1.6160801,0,0,-1.6160801,1242.1992,317.15289)"
       id="g150"><path
         id="path152"
         style="fill:#ffffff;fill-opacity:1;fill-rule:evenodd;stroke:none"
         d="m 0,0 -30.98,70.499 h 15.156 L 5.544,21.874 H 0 Z"
         inkscape:connector-curvature="0" /></g><g
       transform="matrix(1.6160801,0,0,-1.6160801,1161.1663,258.75148)"
       id="g154"><path
         id="path156"
         style="fill:#ffffff;fill-opacity:1;fill-rule:evenodd;stroke:none"
         d="M 0,0 C -1.775,-7.722 -7.762,-13.275 -15.357,-15.346 -31.402,-19.718 -35.393,6.352 -11.549,2.768 -7.455,2.271 -3.883,1.259 0,0 M 0,-26.842 H 13.875 V 6.556 c 2.172,34.445 -41.499,42.547 -58.022,17.715 l 11.166,-7.492 c 8.079,14.125 31.134,10.875 32.65,-4.263 -6.929,1.834 -14.415,3.167 -21.254,2.474 -10.675,-1.081 -19.814,-7.86 -21.267,-18.964 -0.785,-6 0.554,-13.397 4.744,-17.903 6.527,-7.023 17.245,-7.971 26.049,-5.57 4.958,1.35 8.861,4.297 12.059,8.1 z"
         inkscape:connector-curvature="0" /></g><g
       transform="matrix(1.8127758,0,0,-1.8127758,325.47246,64.747971)"
       id="g158"><path
         id="path160"
         style="fill:#ffffff;fill-opacity:1;fill-rule:evenodd;stroke:none"
         d="M 0,0 H -20.461 V -6.072 H -5.95 c -0.717,-8.514 -7.8,-12.145 -14.487,-12.145 -8.555,0 -16.02,6.731 -16.02,16.165 0,9.19 7.117,16.268 16.038,16.268 6.885,0 10.94,-4.388 10.94,-4.388 l 4.252,4.402 c 0,0 -5.456,6.075 -15.408,6.075 -12.673,0 -22.477,-10.696 -22.477,-22.249 0,-11.32 9.222,-22.359 22.8,-22.359 11.941,0 20.682,8.18 20.682,20.278 C 0.37,-1.473 0,0.001 0,0.001 Z"
         inkscape:connector-curvature="0" /></g><path
       id="path162"
       style="fill:#ffffff;fill-opacity:1;fill-rule:evenodd;stroke:none;stroke-width:1.81277573"
       d="M 477.07852,107.23417 H 488.5262 V 30.628086 h -11.44768 z"
       inkscape:connector-curvature="0" /><g
       transform="matrix(1.8127758,0,0,-1.8127758,412.9726,107.234)"
       id="g164"><path
         id="path166"
         style="fill:#ffffff;fill-opacity:1;fill-rule:evenodd;stroke:none"
         d="M 0,0 H 6.315 V 35.945 H 16.68 v 6.314 H -10.366 V 35.945 H 0 Z"
         inkscape:connector-curvature="0" /></g><g
       transform="matrix(1.8127758,0,0,-1.8127758,338.21228,107.234)"
       id="g168"><path
         id="path170"
         style="fill:#ffffff;fill-opacity:1;fill-rule:evenodd;stroke:none"
         d="M 0,0 H 24.217 V 6.315 H 6.314 v 11.658 h 15.748 v 6.314 H 6.314 v 11.658 h 17.903 v 6.314 H 0 Z"
         inkscape:connector-curvature="0" /></g><g
       transform="matrix(1.8127758,0,0,-1.8127758,516.63439,107.234)"
       id="g172"><path
         id="path174"
         style="fill:#ffffff;fill-opacity:1;fill-rule:evenodd;stroke:none"
         d="m 0,0 h 6.314 v 35.945 h 10.365 v 6.314 H -10.366 V 35.945 H 0 Z"
         inkscape:connector-curvature="0" /></g><g
       transform="matrix(1.8127758,0,0,-1.8127758,617.06923,27.939195)"
       id="g176"><path
         id="path178"
         style="fill:#ffffff;fill-opacity:1;fill-rule:evenodd;stroke:none"
         d="m 0,0 c -12.672,0 -22.477,-10.695 -22.477,-22.249 0,-11.23 9.077,-22.181 22.477,-22.355 13.401,0.174 22.477,11.125 22.477,22.355 C 22.477,-10.695 12.674,0 0,0 m 0,-38.52 c -8.471,0.103 -15.821,6.802 -15.821,16.163 0,9.116 7.001,16.151 15.821,16.265 8.82,-0.114 15.822,-7.149 15.822,-16.265 0,-9.361 -7.35,-16.06 -15.822,-16.163"
         inkscape:connector-curvature="0" /></g><g
       transform="matrix(1.8127758,0,0,-1.8127758,669.24926,107.234)"
       id="g180"><path
         id="path182"
         style="fill:#ffffff;fill-opacity:1;fill-rule:evenodd;stroke:none"
         d="M 0,0 H 6.314 V 30.783 L 26.597,0 H 32.9 V 42.259 H 26.585 V 11.494 L 6.314,42.259 H 0 Z"
         inkscape:connector-curvature="0" /></g></g></svg>